<svg width="20" height="21" viewBox="0 0 20 21" fill="none" xmlns="http://www.w3.org/2000/svg">
<path d="M12.5488 10.3356L19.472 3.40516C20.176 2.70044 20.176 1.55846 19.472 0.853735C18.768 0.149015 17.6272 0.149015 16.9232 0.853735L10 7.78419L3.07676 0.853735C2.37277 0.149015 1.23198 0.149015 0.52799 0.853735C-0.175997 1.55846 -0.175997 2.70044 0.52799 3.40516L7.45123 10.3356L0.52799 17.2661C-0.175997 17.9708 -0.175997 19.1128 0.52799 19.8175C0.879983 20.1699 1.34012 20.346 1.80237 20.346C2.26463 20.346 2.72477 20.1699 3.07676 19.8175L10 12.887L16.9232 19.8175C17.2752 20.1699 17.7354 20.346 18.1976 20.346C18.6599 20.346 19.12 20.1699 19.472 19.8175C20.176 19.1128 20.176 17.9708 19.472 17.2661L12.5488 10.3356Z" fill="white"/>
</svg>
