<svg width="105" height="36" viewBox="0 0 105 36" fill="none" xmlns="http://www.w3.org/2000/svg">
<g clip-path="url(#clip0)">
<path d="M30.4237 4.79535H5.41593L7.21758 -0.00012207H32.2253L30.4237 4.79535ZM29.5233 7.19349H4.50411L2.70247 11.989H27.7102L29.5233 7.19349ZM26.8208 14.365H1.80165L0 19.1609H24.9854L26.8208 14.365Z" fill="white"/>
<path d="M90.0115 31.1606H94.5156C95.8157 31.3108 97.1077 30.8245 97.9611 29.8637C98.579 29.081 98.8903 28.1115 98.8395 27.1278C98.9254 25.8563 98.346 24.6281 97.2971 23.8581C96.461 23.3288 95.4667 23.0831 94.4708 23.1605H90.0115V31.1606ZM84.1003 35.9892V7.19348H103.456L101.756 12.0217H90.0115V18.3978H94.7968C98.6589 18.3978 100.663 19.2915 102.048 20.4361C104.054 22.1555 105.137 24.6695 104.987 27.2588C105.141 30.0553 103.824 32.7379 101.485 34.3869C99.6274 35.6294 97.6795 35.9782 93.7163 35.9782L84.1003 35.9892ZM66.9631 35.9892V12.0107H58.3605V7.19348H82.2424L80.5423 12.0217H72.9305V35.9999L66.9631 35.9892ZM43.126 18.7249H46.5039C47.1949 18.7707 47.889 18.7192 48.5644 18.5722C50.0116 18.1247 50.9463 16.7676 50.8164 15.3025C51.0105 13.8393 50.0429 12.4671 48.5644 12.1089C47.8268 11.9431 47.0689 11.8772 46.3123 11.9128H43.1256V18.7249H43.126ZM43.126 23.7058V31.2589H47.247C48.3825 31.3845 49.5248 31.08 50.4337 30.4086C51.2816 29.6479 51.7358 28.5615 51.6724 27.4438C51.6902 26.562 51.414 25.6983 50.8841 24.9806C50.0057 23.8908 48.9247 23.6837 47.0782 23.6837L43.126 23.7058ZM52.6519 20.6649V20.7632C53.6559 21.1374 54.5939 21.6593 55.433 22.311C57.1535 23.6931 58.0902 25.7859 57.9553 27.9457C57.9553 31.8803 55.7933 34.7251 52.2467 35.5754C50.8329 35.9098 49.3768 36.0457 47.9228 35.9786H37.2148V7.19348H46.7407C48.2535 7.13985 49.7676 7.27536 51.2448 7.59672C54.6904 8.4904 56.9534 10.7903 56.9534 14.4194C57.0101 16.1683 56.3224 17.8627 55.0507 19.106C54.3825 19.7627 53.5865 20.285 52.7086 20.6428L52.6519 20.6649Z" fill="white"/>
</g>
<defs>
<clipPath id="clip0">
<rect width="105" height="36" fill="white" transform="translate(0 -0.00012207)"/>
</clipPath>
</defs>
</svg>
