<svg width="398" height="182" viewBox="0 0 398 182" fill="none" xmlns="http://www.w3.org/2000/svg">
<path d="M90.9985 0C40.741 0 0 40.741 0 90.9985C0 141.256 40.741 181.997 90.9985 181.997C141.256 181.997 181.997 141.256 181.997 90.9985C181.997 40.741 141.256 0 90.9985 0ZM90.9985 173.622C45.3665 173.622 8.3747 136.63 8.3747 90.9985C8.3747 45.3665 45.3665 8.37778 90.9985 8.37778C136.63 8.37778 173.622 45.3665 173.622 90.9985C173.622 136.63 136.63 173.622 90.9985 173.622Z" fill="url(#paint0_linear)"/>
<path d="M306.998 0C256.741 0 216 40.741 216 90.9985C216 141.256 256.741 181.997 306.998 181.997C357.256 181.997 397.997 141.256 397.997 90.9985C397.997 40.741 357.256 0 306.998 0ZM306.998 173.622C261.367 173.622 224.375 136.63 224.375 90.9985C224.375 45.3665 261.367 8.37778 306.998 8.37778C352.63 8.37778 389.622 45.3665 389.622 90.9985C389.622 136.63 352.63 173.622 306.998 173.622Z" fill="url(#paint1_linear)"/>
<defs>
<linearGradient id="paint0_linear" x1="91" y1="-32" x2="91" y2="182" gradientUnits="userSpaceOnUse">
<stop stop-color="#F4C300"/>
<stop offset="1" stop-color="#F4C300" stop-opacity="0"/>
</linearGradient>
<linearGradient id="paint1_linear" x1="307" y1="-61" x2="307" y2="193" gradientUnits="userSpaceOnUse">
<stop stop-color="#009F3D"/>
<stop offset="1" stop-color="#009F3D" stop-opacity="0"/>
</linearGradient>
</defs>
</svg>
