<svg width="600" height="182" viewBox="0 0 600 182" fill="none" xmlns="http://www.w3.org/2000/svg">
<path d="M90.9985 0C40.741 0 0 40.741 0 90.9985C0 141.256 40.741 181.997 90.9985 181.997C141.256 181.997 181.997 141.256 181.997 90.9985C181.997 40.741 141.256 0 90.9985 0ZM90.9985 173.622C45.3665 173.622 8.3747 136.63 8.3747 90.9985C8.3747 45.3665 45.3665 8.37778 90.9985 8.37778C136.63 8.37778 173.622 45.3665 173.622 90.9985C173.622 136.63 136.63 173.622 90.9985 173.622Z" fill="url(#paint0_linear)"/>
<path d="M298.998 0C248.741 0 208 40.741 208 90.9985C208 141.256 248.741 181.997 298.998 181.997C349.256 181.997 389.997 141.256 389.997 90.9985C389.997 40.741 349.256 0 298.998 0ZM298.998 173.622C253.367 173.622 216.375 136.63 216.375 90.9985C216.375 45.3665 253.367 8.37778 298.998 8.37778C344.63 8.37778 381.622 45.3665 381.622 90.9985C381.622 136.63 344.63 173.622 298.998 173.622Z" fill="url(#paint1_linear)"/>
<path d="M508.998 0C458.741 0 418 40.741 418 90.9985C418 141.256 458.741 181.997 508.998 181.997C559.256 181.997 599.997 141.256 599.997 90.9985C599.997 40.741 559.256 0 508.998 0ZM508.998 173.622C463.367 173.622 426.375 136.63 426.375 90.9985C426.375 45.3665 463.367 8.37778 508.998 8.37778C554.63 8.37778 591.622 45.3665 591.622 90.9985C591.622 136.63 554.63 173.622 508.998 173.622Z" fill="url(#paint2_linear)"/>
<defs>
<linearGradient id="paint0_linear" x1="63" y1="-92" x2="119" y2="126" gradientUnits="userSpaceOnUse">
<stop stop-color="#0085C7"/>
<stop offset="1" stop-color="#0085C7" stop-opacity="0"/>
</linearGradient>
<linearGradient id="paint1_linear" x1="299" y1="-74" x2="299" y2="113" gradientUnits="userSpaceOnUse">
<stop/>
<stop offset="1" stop-opacity="0"/>
</linearGradient>
<linearGradient id="paint2_linear" x1="623" y1="-98" x2="515" y2="190" gradientUnits="userSpaceOnUse">
<stop stop-color="#E31C24"/>
<stop offset="1" stop-color="#E31C24" stop-opacity="0"/>
</linearGradient>
</defs>
</svg>
