<svg width="162" height="19" viewBox="0 0 162 19" fill="none" xmlns="http://www.w3.org/2000/svg">
    <path d="M19.3615 1.16016V13.6076H21.5036V18.3796H16.1122H5.91434H0.246094V13.8498L2.04534 13.5384C2.27496 13.3779 2.51088 13.1766 2.75308 12.9344C2.99529 12.6922 3.2312 12.3902 3.46083 12.0347C3.69045 11.6793 3.88548 11.2326 4.0459 10.7041C4.20632 10.1725 4.31012 9.52764 4.35731 8.76954L4.91092 1.1633H19.3615V1.16016ZM12.9666 6.00449H10.1671L9.9249 9.32318C9.8557 10.1285 9.7456 10.8803 9.59462 11.5692C9.44678 12.2612 9.19828 12.8369 8.85227 13.2993H12.9666V6.00449Z" fill="#0F347C"/>
    <path d="M39.0746 9.52765C39.5811 9.71324 40.0026 9.96175 40.336 10.2732C40.6694 10.5846 40.9368 10.9243 41.1318 11.2924C41.3268 11.6604 41.4652 12.0253 41.547 12.3808C41.6288 12.7362 41.6697 13.0539 41.6697 13.3308C41.6697 14.1361 41.4967 14.8501 41.1507 15.473C40.8047 16.0958 40.3266 16.6211 39.7163 17.0458C39.1061 17.4705 38.3795 17.8008 37.5396 18.0304C36.6966 18.2632 35.7813 18.3764 34.7904 18.3764H25.0078V1.16016H34.3438C36.7155 1.16016 38.4676 1.60684 39.5968 2.49078C40.726 3.37786 41.2922 4.56063 41.2922 6.03595C41.2922 6.56757 41.1381 7.1621 40.8267 7.8164C40.5153 8.47385 39.9334 9.00861 39.0809 9.42698V9.52765H39.0746ZM34.6143 6.7972C34.6143 6.13032 34.2683 5.79373 33.5762 5.79373H31.4687V7.76607H33.5762C33.9223 7.76607 34.1833 7.67484 34.3532 7.48925C34.5293 7.30365 34.6143 7.07402 34.6143 6.7972ZM35.0987 12.2266C35.0987 11.9498 35.0075 11.7139 34.8219 11.5189C34.6363 11.3238 34.3721 11.2263 34.0261 11.2263H31.4656V13.4031H34.0261C34.3721 13.4031 34.6363 13.2804 34.8219 13.0382C35.0075 12.796 35.0987 12.5255 35.0987 12.2266Z" fill="#0F347C"/>
    <path d="M50.6252 11.1537L54.2552 6.07026L57.7467 1.26367H61.7227V18.3793H56.9194V8.87305H56.781L53.9815 12.8146L49.9364 18.3824H45.6836V1.26367H50.5246V11.1537H50.6252Z" fill="#0F347C"/>
    <path d="M73.1059 11.3267C72.483 11.3267 71.9483 11.5311 71.4985 11.9338C71.0487 12.3364 70.6618 13.0222 70.3409 13.9879C70.1333 14.7271 69.9194 15.4569 69.7024 16.1836C69.4853 16.9102 69.2715 17.6432 69.0638 18.3793H65.0879C65.3647 17.4576 65.6478 16.5391 65.9372 15.63C66.2234 14.7209 66.5065 13.7929 66.7833 12.8492C67.0381 11.9967 67.359 11.2669 67.7522 10.6535C68.1422 10.0432 68.743 9.64689 69.5514 9.46129C68.9066 9.27884 68.375 8.90136 67.9629 8.33829C67.5477 7.77207 67.2143 7.07687 66.9595 6.24327L65.4024 1.26682H69.24L70.624 5.76198C70.7845 6.31562 70.9858 6.75916 71.228 7.0926C71.4702 7.42604 71.7344 7.6777 72.0238 7.85385C72.3132 8.03001 72.612 8.13696 72.9234 8.18415C73.2348 8.23133 73.5399 8.25335 73.8388 8.25335H75.6695V1.26367H79.5762V8.25021H81.3409C82.0077 8.25021 82.6431 8.04259 83.2408 7.62737C83.8416 7.21214 84.326 6.42886 84.694 5.27755L85.9396 1.26682H89.7772L88.2202 6.24327C87.9654 7.07373 87.6319 7.77207 87.2167 8.33829C86.8015 8.90136 86.2699 9.2757 85.6251 9.46129C86.4335 9.64689 87.0311 10.0464 87.4243 10.6535C87.8144 11.2669 88.1384 11.9967 88.3932 12.8492C88.67 13.796 88.9531 14.7209 89.2425 15.63C89.5318 16.5391 89.8118 17.4576 90.0886 18.3793H86.1126C85.905 17.6432 85.6911 16.9102 85.4741 16.1836C85.2571 15.4569 85.0432 14.7271 84.8356 13.9879C84.4644 12.8806 84.0177 12.1634 83.4861 11.8268C82.9545 11.4934 82.3349 11.3235 81.6208 11.3235H79.5794V18.3761H75.6726V11.3267H73.1059Z" fill="#0F347C"/>
    <path d="M95.996 10.7729V11.0497C95.996 11.7228 96.0872 12.3646 96.2728 12.9654C96.4584 13.5694 96.7352 14.0978 97.1032 14.5477C97.4712 15.0006 97.9336 15.3561 98.4872 15.6109C99.0408 15.8657 99.6857 15.9947 100.422 15.9947C100.975 15.9947 101.614 15.8531 102.341 15.5794C103.067 15.3026 103.718 14.9 104.294 14.3684L106.125 16.4036C105.316 17.1774 104.407 17.7342 103.394 18.0771C102.378 18.4168 101.343 18.5867 100.283 18.5867C99.4057 18.5867 98.5376 18.4672 97.6725 18.225C96.8107 17.9827 96.0306 17.5392 95.3385 16.8943C94.6465 16.2495 94.0866 15.3624 93.662 14.2331C93.2342 13.1038 93.0234 11.6536 93.0234 9.87634C93.0234 8.1934 93.2436 6.78414 93.6809 5.63912C94.1181 4.50038 94.6843 3.58814 95.3732 2.90867C96.0652 2.22921 96.8358 1.74477 97.6914 1.45852C98.5438 1.16912 99.3743 1.02441 100.18 1.02441C101.123 1.02441 102.01 1.19428 102.841 1.52772C103.671 1.86116 104.398 2.35189 105.017 2.99675C105.64 3.64161 106.128 4.43118 106.486 5.36544C106.842 6.29971 107.021 7.36609 107.021 8.56459V10.776H95.996V10.7729ZM100.041 3.72026C98.8647 3.72026 97.9179 4.1229 97.2039 4.92819C96.4898 5.73663 96.0872 6.88795 95.9928 8.38529H104.049C103.979 6.84391 103.586 5.67686 102.872 4.89359C102.161 4.11346 101.218 3.72026 100.041 3.72026Z" fill="#0F347C"/>
    <path d="M122.347 18.3795V10.3926H113.392V18.3795H111.215V1.23242H113.392V8.63104H122.347V1.23242H124.524V18.3795H122.347Z" fill="#0F347C"/>
    <path d="M141.745 18.3793V3.8211L138.946 7.65882L130.994 18.3761H129.506V1.26367H131.028V16.0641L134.174 11.7765L141.953 1.26367H143.268V18.3793H141.745Z" fill="#0F347C"/>
    <path d="M154.96 18.7161C154.102 18.7161 153.227 18.5966 152.359 18.3669C151.481 18.1341 150.676 17.6906 149.968 17.0489C149.258 16.404 148.672 15.5044 148.232 14.3688C147.792 13.2332 147.568 11.7296 147.568 9.90821C147.568 8.15292 147.779 6.67446 148.194 5.52C148.61 4.36239 149.154 3.43756 149.817 2.77068C150.478 2.10694 151.23 1.63194 152.044 1.36456C152.853 1.09718 153.664 0.961914 154.454 0.961914C155.687 0.961914 156.738 1.17897 157.584 1.61307C158.433 2.04403 159.134 2.63541 159.669 3.36835C160.201 4.09815 160.591 4.96636 160.824 5.94466C161.053 6.91982 161.17 7.94845 161.17 9.00854V9.79496H148.553C148.559 10.8613 148.657 11.8805 148.845 12.8274C149.037 13.7994 149.38 14.6739 149.868 15.4194C150.355 16.1681 151.013 16.7595 151.821 17.1841C152.633 17.612 153.664 17.8322 154.888 17.8322C155.608 17.8322 156.341 17.7095 157.071 17.4736C157.794 17.2376 158.461 16.9105 159.053 16.5015L159.125 16.4512L159.767 17.2187L159.682 17.2785C158.313 18.2348 156.725 18.7161 154.96 18.7161ZM160.116 8.84497C160.015 6.50774 159.477 4.75245 158.518 3.6263C157.552 2.49071 156.203 1.91191 154.511 1.91191C152.705 1.91191 151.286 2.52217 150.296 3.72696C149.314 4.92232 148.754 6.643 148.628 8.84497H160.116Z" fill="#0F347C"/>
    <path d="M154.46 1.05907C155.677 1.05907 156.706 1.26983 157.545 1.69764C158.385 2.12231 159.068 2.70112 159.596 3.42462C160.125 4.15127 160.505 4.99746 160.735 5.96632C160.965 6.93519 161.081 7.9481 161.081 9.00819V9.70024H148.464C148.464 10.8075 148.562 11.855 148.757 12.8459C148.952 13.8368 149.298 14.7113 149.795 15.4725C150.292 16.2338 150.952 16.8346 151.783 17.2687C152.61 17.706 153.648 17.9262 154.894 17.9262C155.63 17.9262 156.369 17.8035 157.105 17.5613C157.841 17.3222 158.511 16.9919 159.112 16.5767L159.631 17.1995C158.269 18.1464 156.715 18.6182 154.963 18.6182C154.11 18.6182 153.252 18.5018 152.387 18.2722C151.522 18.0426 150.738 17.6116 150.037 16.9762C149.336 16.3408 148.763 15.46 148.326 14.3307C147.889 13.2014 147.668 11.726 147.668 9.90471C147.668 8.15571 147.876 6.70241 148.288 5.54795C148.7 4.39663 149.235 3.49382 149.889 2.83323C150.543 2.17579 151.273 1.71652 152.078 1.45228C152.884 1.19119 153.676 1.05907 154.46 1.05907ZM148.53 8.94213H160.216C160.125 6.52311 159.584 4.73007 158.593 3.56618C157.602 2.40228 156.243 1.82033 154.513 1.82033C152.667 1.82033 151.239 2.43688 150.226 3.66998C149.21 4.89994 148.644 6.65837 148.53 8.94213ZM154.46 0.867188C153.661 0.867188 152.84 1.0056 152.022 1.27612C151.188 1.5498 150.427 2.03109 149.757 2.70426C149.084 3.38058 148.53 4.31799 148.109 5.48818C147.69 6.65522 147.477 8.14313 147.477 9.90785C147.477 11.7449 147.703 13.2548 148.147 14.403C148.59 15.5512 149.185 16.4666 149.908 17.1209C150.628 17.772 151.446 18.2219 152.34 18.4578C153.211 18.6906 154.095 18.8101 154.963 18.8101C156.746 18.8101 158.354 18.3225 159.738 17.3568L159.908 17.2373L159.776 17.0768L159.257 16.454L159.146 16.3187L159.005 16.4194C158.423 16.822 157.766 17.146 157.048 17.3788C156.331 17.6147 155.605 17.7343 154.894 17.7343C153.686 17.7343 152.67 17.5204 151.871 17.0989C151.075 16.6805 150.43 16.0985 149.952 15.3656C149.471 14.6264 149.131 13.7644 148.942 12.805C148.76 11.8896 148.666 10.9082 148.653 9.88583H161.081H161.273V9.70024V9.00819C161.273 7.93866 161.156 6.90059 160.924 5.92228C160.688 4.93454 160.295 4.05375 159.754 3.31138C159.209 2.56585 158.495 1.96503 157.633 1.52778C156.772 1.09053 155.705 0.867188 154.46 0.867188ZM148.732 8.75024C148.867 6.61748 149.417 4.94713 150.37 3.78637C151.342 2.60675 152.736 2.00592 154.51 2.00592C156.174 2.00592 157.495 2.57214 158.445 3.68571C159.376 4.77726 159.905 6.48221 160.015 8.7471H148.732V8.75024Z" fill="#0F347C"/>
</svg>
