<svg width="1680" height="1455" viewBox="0 0 1680 1455" fill="none" xmlns="http://www.w3.org/2000/svg">
    <path d="M1652.85 587.325C1652.24 581.866 1650.72 576.38 1650.83 570.949C1651.02 560.334 1648.53 551.733 1639.33 544.95C1632.9 540.208 1631.87 530.559 1636.92 526.313C1646.53 518.263 1634.92 518.676 1633.84 515.202C1633.68 514.678 1632.26 514.651 1631.54 514.21C1622.87 508.916 1621.59 495.214 1628.77 487.991C1631.1 485.647 1633.48 483.056 1631.71 478.783C1630.05 474.785 1627.97 472.965 1623.4 472.634C1615.8 472.111 1607.24 463.454 1606.35 456.451C1605.88 452.839 1607.74 451.075 1611.09 450.413C1613.23 449.999 1615.17 449.228 1614.14 446.36C1612.04 440.46 1606.3 437.593 1601.53 437.428C1599.93 437.372 1598.49 437.235 1597.13 437.069C1591.5 436.297 1588.04 434.174 1586.49 428.44C1585.79 425.876 1585.43 422.898 1582.3 422.457C1579.17 422.016 1576.6 424.387 1574.91 426.427C1569.53 432.961 1569.25 433.32 1564.87 425.38C1558.86 414.462 1557.06 401.504 1547.09 392.296C1543.48 388.96 1547.11 383.142 1552.07 382.122C1556.37 381.24 1556.15 379.228 1554.93 376.829C1553.74 374.486 1551.66 372.28 1552.43 369.716C1553.18 367.29 1550.74 364.009 1553.68 362.575C1557.03 360.949 1556.62 365.25 1558.36 366.352C1560.3 367.593 1562.38 369.523 1564.65 367.951C1567.42 366.022 1565.35 363.568 1564.15 361.858C1559.91 355.821 1561.02 349.397 1562.05 342.808C1563.6 332.827 1570.72 327.672 1581.31 329.326C1583.13 329.602 1585.07 328.968 1586.21 327.534C1587.9 325.439 1586.16 323.536 1584.46 322.158C1580.75 319.153 1580.06 315.183 1579.53 310.634C1578.84 304.734 1577.45 298.861 1576.1 292.989C1574.16 284.773 1569.75 276.943 1570.94 268.121C1572.19 258.995 1570.08 249.952 1568.98 241.13C1567.98 233.162 1569.67 227.731 1575.02 222.63C1577.32 220.452 1582.44 219.019 1580.59 215.435C1578.62 211.658 1578.06 206.144 1570 206.474C1564.4 206.695 1557.89 208.763 1552.82 206.75C1542.65 202.67 1534.84 205.261 1527.08 211.713C1524.7 213.698 1523.59 218.192 1518.96 216.675C1520.48 213.367 1523.23 210.968 1525.39 208.129C1531.93 199.582 1531.57 190.622 1526.11 181.579C1522.4 175.431 1518.3 170.882 1509.96 173.804C1505.66 175.293 1505.33 171.488 1505.3 168.566C1505.24 163.19 1508.32 167.242 1509.73 167.435C1524.11 169.172 1524.14 169.2 1525.61 154.036C1525.67 153.457 1525.53 152.796 1525.78 152.327C1528.3 147.613 1530.9 142.815 1537.64 145.848C1542.9 148.247 1545.98 145.848 1548.36 141.465C1550.49 137.577 1553.29 135.013 1558.09 133.8C1563.21 132.504 1565.29 129.031 1565.59 122.607C1565.96 114.667 1559.91 117.148 1557.12 115.549C1551.77 112.544 1546.64 107.195 1539.3 110.007C1538.8 110.2 1538.33 110.393 1537.83 110.586C1538.11 109.952 1538.25 109.208 1538.69 108.684C1542.18 104.493 1544.51 99.7513 1542.35 94.4854C1540.66 90.3223 1533.15 89.6882 1534.95 82.9336C1535.12 82.2995 1532.68 81.5 1532.01 82.4098C1524.11 93.1345 1505.8 90.791 1501.73 106.809C1500.89 110.09 1498.54 113.371 1498.35 117.093C1498.23 119.298 1498.46 121.421 1495.35 120.897C1481.72 118.582 1474.35 130.271 1463.9 134.986C1454.34 139.314 1445.75 145.793 1436.28 150.37C1424.72 155.939 1414.11 163.713 1407.46 173.666C1401.23 183.012 1396.6 193.379 1387.95 201.071C1385.54 203.221 1381.91 204.682 1382.96 209.011C1389.31 206.833 1387.48 220.314 1396.21 215.545C1398.93 214.056 1406.32 213.339 1407.93 220.535C1409.51 227.648 1405.58 227.51 1400.39 226.849C1398.76 226.628 1396.68 228.337 1395.1 229.55C1393.19 231.012 1391.58 231.177 1389.59 229.854C1387.04 228.144 1388.06 226.738 1389.56 224.974C1391.47 222.713 1390.47 221.169 1388.48 219.157C1385.6 216.289 1383.77 216.51 1380.55 218.853C1376.48 221.831 1374.18 224.229 1376.98 229.495C1380.06 235.34 1373.85 251.91 1367.64 252.654C1361.91 253.343 1361.66 257.258 1359.27 260.429C1356.75 263.847 1355.03 267.762 1353.4 271.677C1350.71 278.156 1341.07 281.161 1337.61 276.888C1328.77 265.97 1318.76 264.84 1308.01 274.103C1300.53 280.555 1294.32 287.833 1291.19 297.786C1289.53 303.107 1286.12 310.275 1277.28 304.927C1274.6 303.3 1271.19 304.706 1268.03 305.037C1264.4 305.395 1259.16 309.448 1256.75 304.651C1252.4 295.939 1245.92 299.357 1241.45 302.28C1234.75 306.636 1227.74 309.035 1220.17 310.854C1209.67 313.363 1201.89 322.323 1190.58 323.288C1188.06 323.509 1186.09 326.321 1189.69 327.92C1195.82 330.622 1192.83 332.717 1189.69 334.95C1182.85 339.885 1185.48 343.966 1190.69 347.963C1193.16 349.866 1196.87 349.921 1198.4 353.229C1198.78 354.111 1200.75 354.249 1199.64 355.821C1198.92 356.868 1197.87 357.53 1196.68 356.841C1191.91 354.139 1190.36 357.64 1187.23 360.315C1184.07 362.989 1181.85 368.779 1175.45 366.931C1172.93 366.187 1171.96 369.357 1170.77 371.37C1164.59 381.847 1164.56 381.819 1153.4 375.836C1152.26 375.23 1151.82 372.859 1149.99 374.017C1148.3 375.12 1148.63 376.884 1149.02 378.704C1150.32 384.576 1151.54 390.504 1152.65 396.404C1152.9 397.672 1153.45 399.133 1151.32 399.85C1146.27 401.559 1130.87 395.659 1130.79 390.752C1130.56 380.385 1120.84 374.568 1119.87 364.533C1119.37 359.35 1105.18 354.056 1100.39 355.958C1093.66 358.605 1086.92 361.665 1080.63 354.938C1080.05 354.332 1078.58 354.166 1078.58 355.159C1078.58 360.645 1070.3 365.167 1076.95 371.646C1078.36 373.024 1080.77 377.049 1077.47 379.117C1069.55 384.08 1060.24 382.784 1051.45 383.804C1049.07 384.08 1046.94 383.087 1048.16 379.613C1049.13 376.829 1046.3 375.506 1044.69 375.809C1036.6 377.463 1027.76 374.182 1020.25 379.531C1016.13 382.453 1011.94 385.183 1009 377.987C1008.78 377.435 1005.9 373.052 1005.12 377.959C1004.82 379.834 1005.32 381.378 1003.02 381.543C1000.64 381.709 998.17 381.102 996.535 379.421C995.538 378.373 998.613 373.493 993.958 375.947C990.633 377.684 984.842 375.561 983.983 381.874C983.678 384.218 983.373 385.899 986.089 386.423C986.976 386.589 988.333 385.045 988.721 386.699C988.888 387.361 987.28 389.235 986.698 389.125C983.567 388.656 982.598 391.717 980.99 392.378C976.585 394.17 974.368 399.933 968.66 398.968C967.524 398.775 965.64 399.602 965.196 398.582C965.03 398.196 966.914 397.038 967.274 396.073C969.796 389.235 977.388 387.085 980.88 380.468C985.064 372.583 990.134 364.671 996.895 358.247C1003.41 352.071 1005.29 344.241 1003.88 335.557C1002.49 327.065 997.311 319.098 990.661 316.313C982.986 313.115 972.622 311.24 964.947 319.484C964.282 320.2 962.813 320.89 962.01 320.641C960.042 320.062 960.624 318.408 961.372 317.168C965.834 309.862 962.315 308.759 955.664 309.558C954.168 309.724 952.478 308.345 950.898 307.684C951.841 306.636 952.644 305.009 953.78 304.678C961.372 302.5 957.05 300.901 953.448 300.074C949.264 299.109 945.828 293.54 941.616 296.104C934.356 300.543 927.013 307.38 927.096 315.569C927.207 325.273 923.522 325.521 916.512 324.281C914.627 323.95 912.328 324.474 913.741 326.845C918.451 334.73 909.473 331.504 907.561 333.71C905.844 335.667 903.461 332.469 904.791 329.161C904.957 328.747 904.153 327.644 903.571 327.313C901.521 326.155 878.55 332.607 878.91 334.233C880.545 341.374 874.56 338.148 871.983 339.582C870.348 340.519 868.436 340.767 866.58 340.795C856.882 340.905 850.148 349.59 840.201 349.121C838.4 349.038 836.571 350.61 834.687 351.272C823.714 355.104 822.578 360.59 831.168 368.365C835.601 372.39 836.1 374.292 833.024 374.816C826.236 376.002 819.973 379.421 812.353 377.105C807.477 375.616 802.212 374.568 797.086 373.548C791.71 372.473 786.972 372.39 786.64 380.275C786.446 384.879 787.304 389.952 783.675 394.198C782.372 395.714 783.785 398.94 785.476 399.519C793.317 402.248 789.66 412.091 795.95 415.62C796.726 416.061 796.642 417.66 795.783 417.302C791.932 415.703 785.171 421.161 784.284 415.124C782.732 404.371 775.085 398.471 769.127 390.972C766.689 387.912 764.195 387.829 761.618 389.428C759.568 390.697 755.578 391.937 759.041 395.88C760.399 397.424 759.485 399.602 758.21 400.318C756.437 401.339 756.52 398.526 755.384 398.003C750.673 395.797 747.293 397.203 746.378 402.304C745.602 406.715 746.351 410.905 750.23 414.131C751.477 415.179 753.666 418.404 750.202 418.487C747.293 418.57 743.94 416.116 741.391 414.048C739.091 412.201 741.114 409.775 741.502 407.349C743.386 395.797 755.938 386.506 749.066 373.052C748.65 372.252 749.786 370.24 748.096 369.55C747.182 369.192 745.686 369.192 744.882 369.716C742.887 371.012 744.272 372.666 744.771 374.293C748.207 385.458 745.408 390.531 734.851 394.06C728.146 396.293 722.742 399.354 724.682 408.645C725.818 414.131 726.317 422.485 723.158 425.573C719.362 429.294 716.065 432.934 713.82 437.097C711.964 440.571 710.828 444.375 710.855 448.952C710.855 450.964 706.117 453.528 708.86 454.273C712.989 455.403 717.173 460.834 719.639 458.905C724.405 455.183 725.735 458.905 728.063 460.807C729.032 461.579 730.03 464.005 729.67 464.391C728.34 465.742 727.481 463.564 726.206 463.316C713.072 460.779 707.752 464.722 705.84 477.68C705.175 482.146 704.039 486.805 698.691 488.818C696.641 489.59 694.119 491.217 693.426 493.064C690.822 500.011 684.809 501.059 678.879 502.382C676.053 503.016 673.143 502.989 672.035 506.628C670.982 510.074 668.211 510.157 666.853 508.641C663.944 505.415 662.475 501.197 667.657 498.798C668.738 498.302 669.486 497.723 670.345 496.979C680.791 488.129 691.459 479.554 700.326 468.995C702.21 466.734 702.238 464.694 701.213 462.654C696.142 452.674 699.91 444.706 704.455 437.069C706.644 433.402 708.971 429.818 710.606 426.124C712.74 421.272 715.095 416.309 717.367 411.374C719.639 406.384 714.18 401.421 718.808 397.424C724.35 392.599 727.841 386.148 732.635 380.744C736.874 375.974 735.295 372.804 731.305 368.999C727.453 365.36 720.664 366.049 718.42 362.493C714.568 356.4 712.49 360.811 709.996 362.548C707.918 363.981 705.701 365.911 704.732 368.144C700.243 378.483 692.179 383.198 681.373 385.21C675.028 386.396 666.743 398.94 669.541 402.028C673.559 406.439 668.765 410.023 667.851 410.326C661.7 412.477 661.921 418.211 659.871 422.595C659.289 423.863 658.458 426.124 660.785 425.38C671.758 421.823 667.38 428.33 666.272 433.099C665.967 434.422 665.911 435.829 666.355 437.097C666.659 437.979 667.158 438.806 667.99 439.55C669.735 441.067 670.816 442.859 668.627 444.623C666.992 445.947 665.246 447.16 663.473 448.345C661.616 449.586 659.067 449.2 657.737 447.435C656.906 446.333 656.296 445.313 656.518 444.486C657.211 441.784 657.072 439.358 656.463 437.124C655.326 432.934 652.472 429.432 650.089 425.986C644.354 417.715 644.215 406.191 635.431 400.098C626.093 393.647 619.111 386.423 619.804 374.182C619.914 372.28 619.416 369.909 616.839 369.495C614.262 369.082 612.322 370.157 611.241 372.638C610.078 375.313 608.36 378.207 610.161 380.882C614.927 387.995 611.325 395.494 611.685 402.772C611.906 406.88 609.44 407.845 606.226 407.762C602.984 407.707 599.825 405.888 600.49 402.634C601.904 395.769 597.969 395.907 593.258 395.714C586.054 395.439 578.545 396.597 573.336 389.042C571.812 386.809 567.184 385.541 563.748 388.243C562.446 389.263 561.199 391.22 559.758 388.546C559.01 387.14 556.71 386.01 558.04 384.107C559.814 381.516 560.479 378.428 563.194 376.195C565.189 374.541 568.764 377.242 568.625 374.568C568.459 371.646 564.552 372.142 562.252 371.15C559.204 369.881 556.017 370.157 552.886 369.771C541.415 368.393 530.026 366.352 518.638 364.56C518.527 364.533 518.416 364.505 518.305 364.45C511.655 360.59 504.728 358.771 499.602 365.884C495.501 371.535 491.04 370.047 486.634 367.731C481.591 365.057 479.873 352.705 484.417 348.487C488.047 345.096 492.813 344.186 497.053 349.424C499.63 352.623 502.401 350.913 504.534 347.605C509.688 339.582 508.967 331.945 501.652 325.494C500.073 324.115 498.438 323.178 498.133 320.917C497.912 319.346 498.383 316.864 496.055 316.975C494.032 317.085 493.644 319.484 493.811 321.165C494.753 330.208 488.213 333.985 481.868 337.432C477.019 340.078 471.256 341.071 474.082 348.956C474.775 350.886 472.17 352.705 469.787 353.725C466.074 355.324 462.527 357.365 458.98 359.322C458.011 359.846 456.902 361.583 456.514 361.417C454.575 360.508 456.154 358.716 456.487 357.806C458.648 352.099 454.63 347.688 452.829 343.331C451.277 339.637 446.04 343.304 442.41 342.89C441.025 342.753 439.362 343.442 438.31 342.229C433.765 336.963 427.863 340.685 422.682 339.72C414.23 338.176 414.563 345.482 412.596 350.114C411.099 353.643 408.689 353.367 405.724 353.257C402.122 353.119 401.484 351.079 401.318 348.129C400.958 341.65 400.487 335.171 399.933 328.719C399.711 325.99 400.376 321.606 396.136 322.516C392.978 323.205 387.048 320.669 386.826 327.341C386.66 332.193 379.123 336.632 386.161 342.008C387.408 342.945 385.191 344.186 384.194 345.151C381.922 347.329 379.345 347.66 377.1 345.868C373.609 343.083 373.831 338.81 374.191 334.978C374.662 329.96 380.73 325.08 373.886 319.98C372.667 319.07 373.637 316.175 375.327 315.541C380.315 313.611 381.589 308.263 385.33 305.147C387.38 303.465 388.794 301.949 391.758 301.728C398.907 301.205 401.096 297.042 401.817 289.901C402.703 281.244 405.557 271.622 404.449 266.301C403.341 260.953 407.802 258.499 410.767 260.567C411.986 261.421 410.905 264.454 410.129 265.419C408.024 267.983 406.223 270.74 407.553 274.159C410.102 280.693 409.049 287.944 411.432 294.34C416.364 307.628 417.833 322.792 432.74 330.677C441.219 335.171 455.932 331.807 461.336 323.398C464.495 318.463 466.711 313.804 468.069 307.821C469.177 302.969 466.213 300.488 466.157 296.766C465.963 286.427 466.905 276.254 468.596 266.081C469.815 258.664 465.16 252.433 463.137 245.955C461.003 239.145 458.897 238.456 464.107 234.927C465.548 233.934 465.741 232.611 465.215 231.122C464.162 228.255 465.769 222.879 459.867 224.671C457.013 224.919 464.273 209.7 458.62 211.63C455.323 212.76 453.522 212.871 452.58 212.788C452.303 212.705 452.026 212.678 451.721 212.595C451.665 212.567 451.638 212.567 451.638 212.567L451.61 212.595C447.37 211.658 442.854 212.016 438.753 211.713C434.624 211.437 429.055 208.818 426.838 210.5C421.629 214.442 413.732 215.821 412.125 224.202C410.988 230.047 407.636 235.45 400.57 235.34C390.428 235.175 384.554 240.937 379.871 248.712C377.211 253.15 373.221 254.611 368.594 256.817C361.279 260.291 351.026 260.622 347.923 271.457C346.787 275.372 340.912 281.051 337.754 280.72C327.889 279.673 327.668 285.628 326.393 292.051C323.927 304.348 321.294 305.892 308.604 304.541C291.673 302.749 274.882 300.322 258.173 297.124C256.816 296.876 255.236 295.829 254.294 297.235C253.906 297.786 254.904 299.33 255.375 300.378C256.954 303.879 261.471 306.884 255.873 311.24C254.405 312.37 254.488 317.002 256.483 319.428C258.312 321.662 257.342 323.812 257.176 326.018C257.093 327.038 257.536 328.664 255.984 328.747C254.516 328.83 254.627 327.258 254.322 326.211C250.83 313.17 232.736 306.14 222.346 314.659C213.922 321.579 205.332 326.431 194.276 326.128C191.866 326.073 189.843 327.865 189.871 330.263C189.926 335.033 188.818 338.396 182.805 336.687C180.976 336.163 179.286 337.101 178.538 338.92C175.074 347.219 162.827 352.292 169.615 364.643C170.807 366.793 166.069 371.012 169.698 375.423C176.155 383.253 174.187 389.704 165.154 393.812C152.353 399.629 143.264 414.214 144.483 427.309C144.816 431.004 143.624 433.788 140.299 435.084C137.251 436.27 133.815 434.864 132.846 432.162C128.966 421.216 125.004 423.725 119.711 431.197C118.104 433.458 115.029 434.864 112.978 437.235C112.923 437.29 112.84 437.345 112.784 437.428C109.736 441.122 110.872 446.388 115.333 447.821C128.634 452.122 131.515 465.439 121.235 475.033C120.404 475.833 119.601 476.687 118.686 477.376C114.668 480.492 113.56 483.993 116.608 488.515C118.437 491.272 119.795 494.938 117.051 497.392C110.152 503.513 106.383 509.302 112.84 518.428C118.354 526.203 122.261 534.308 123.258 544.868C124.034 553.166 128.467 562.044 130.185 570.949C130.74 573.871 129.077 577.014 126.445 576.959C118.936 576.766 114.752 581.811 110.041 586.002C106.605 589.062 102.005 588.952 98.1815 591.13C95.9094 592.426 95.9648 586.25 93.6096 584.954C88.5111 582.142 83.0247 579.44 77.1504 579.551C74.5458 579.606 70.6665 581.866 69.7244 584.1C68.0065 588.18 72.9387 587.656 75.0445 589.2C76.4023 590.193 77.289 591.819 78.3419 593.198C79.6719 594.962 82.2489 598.188 82.0826 598.353C79.1455 601 78.7575 596.368 76.7625 596.23C71.5809 595.872 68.3112 591.323 63.5176 590.413C61.19 589.972 61.2177 585.506 58.2252 587.408C55.9253 588.869 55.8145 591.295 55.8422 594.218C55.8976 599.015 52.1846 602.406 47.5295 600.724C43.1515 599.153 38.9674 598.877 34.8111 599.704C30.7933 600.531 29.103 599.649 29.6295 595.651C29.8789 593.639 29.0753 591.185 27.6621 591.792C25.2515 592.867 22.342 591.378 20.7626 592.977C19.1832 594.576 20.2638 597.002 22.1203 598.188C25.4731 600.311 23.8937 602.571 22.7022 604.887C21.3722 607.451 19.5157 609.905 20.3747 612.993C24.2262 626.888 24.8635 640.838 21.5939 654.899C20.9289 657.794 19.7374 660.634 24.0323 661.792C29.4355 663.253 30.1005 668.05 31.957 672.351C35.3652 680.236 33.4256 691.319 44.8694 694.682C45.5344 694.875 46.3103 695.868 46.4488 696.585C48.056 705.214 55.2049 713.016 50.0787 722.666C48.7487 725.175 50.9931 725.368 53.1821 726.167C59.001 728.318 61.9382 734.356 67.0643 737.636C67.1198 737.664 67.1752 737.719 67.2306 737.747C63.379 742.241 74.4904 749.464 64.4874 753.048C64.1272 753.186 64.3212 756.605 65.1524 757.928C71.1653 767.495 70.528 778.219 71.2207 788.779C71.6917 796.03 77.4552 799.2 83.4127 798.511C89.093 797.849 98.4309 802.812 98.8189 789.551C99.1514 777.971 99.6778 765.454 110.207 756.522C114.114 753.213 117.218 748.334 119.24 743.564C119.989 741.799 120.016 739.704 120.044 737.609C120.044 735.21 120.044 732.839 121.014 730.965C123.397 726.388 128.689 732.508 133.067 729.255C143.264 721.701 154.292 723.355 164.822 729.145C169.144 731.516 171.666 728.566 174.991 727.077C179.563 725.065 175.545 722.969 175.49 720.929C175.462 719.027 174.381 715.47 176.709 715.718C185.409 716.601 185.188 710.756 185.354 705.325C185.52 699.921 188.042 693.469 183.83 689.417C179.175 684.95 179.009 681.339 182.251 676.679C183.581 674.749 183.664 672.792 182.666 670.917C178.15 662.426 183.692 660.275 190.286 658.731C193.223 658.042 196.438 658.842 197.906 654.458C200.927 645.415 211.872 639.212 220.628 641.114C224.119 641.886 226.003 644.478 225.865 648.172C225.754 651.067 225.227 653.989 225.31 656.884C225.421 660.882 227.971 661.736 230.243 658.842C234.454 653.438 237.53 647.4 246.175 652.914C248.447 654.375 252.354 648.861 255.818 651.315C261.194 655.092 266.819 654.265 272.499 653.135C283.555 650.901 283.001 667.581 293.724 665.982C294.278 665.899 295.331 668.133 295.858 669.428C296.162 670.173 295.497 671.303 295.83 671.992C299.681 680.153 308.133 686.191 307.329 696.557C307.329 696.64 308.909 696.943 309.767 696.971C311.818 696.998 312.732 697.329 312.428 699.948C311.957 704.304 315.392 707.944 315.088 712.713C314.894 715.746 318.219 718.641 321.932 715.773C326.171 712.52 329.081 714.946 333.292 716.049C338.668 717.428 338.696 722.528 342.741 724.265C349.391 727.132 356.873 729.255 358.674 737.609C358.84 738.381 358.979 739.153 359.034 740.035C359.394 744.915 364.548 752.276 366.682 751.173C375.493 746.542 375.909 752.138 378.43 757.625C379.816 760.63 385.108 763.442 387.657 761.209C390.539 758.672 396.497 754.978 391.038 749.05C389.348 747.203 388.544 744.557 387.519 742.185C386.798 740.504 386.3 739.015 385.967 737.664C384.443 731.185 387.547 728.263 395.998 728.208C398.658 728.18 401.29 728.538 401.013 725.588C400.348 718.338 406.084 718.641 410.102 717.869C414.923 716.959 417.639 715.388 416.613 710.122C415.727 705.628 417.001 701.906 421.269 700.059C425.314 698.322 429.276 699.314 432.601 702.292C436.204 705.49 440.693 706.675 445.098 708.274C466.462 716.104 489.571 716.573 511.073 723.852C512.625 724.375 514.786 724.541 516.227 723.907C524.651 720.185 532.215 723.989 539.918 726.278C543.216 727.27 542.579 732.564 546.292 732.894C551.362 733.336 553.385 735.045 553.801 737.664C554.106 739.649 553.468 742.158 552.526 745.025C551.39 748.416 554.244 752.607 550.586 755.97C549.617 756.88 550.974 759.306 552.415 759.169C559.342 758.479 561.144 763.911 564.718 767.908C566.962 770.417 567.96 775.242 572.615 775.187C578.129 775.132 578.656 777.117 576.079 781.555C573.336 786.242 574.388 787.759 580.457 787.896C585.5 788.007 588.354 784.312 592.981 783.568C598.08 782.741 604.397 784.698 609.08 779.35C611.186 776.951 616.312 779.239 618.751 781.197C621.521 783.403 617.587 785.746 616.34 787.345C614.262 789.992 613.375 792.363 614.899 795.258C626.842 817.892 630.721 842.457 632.799 867.491C632.938 869.228 632.827 871.323 634.739 871.985C636.955 872.757 637.454 870.33 638.59 869.2C643.772 863.824 647.79 864.513 650.782 871.295C656.102 883.399 662.42 886.376 674.501 883.123C677.521 882.323 681.262 882.406 683.423 885.273C690.129 894.123 693.787 904.903 701.046 913.45C701.323 913.781 701.019 914.58 701.074 915.159C701.601 921.307 711.132 925.856 716.148 922.245C717.949 920.949 719.085 918.082 721.856 919.543C724.46 920.921 722.992 923.458 723.13 925.663C723.435 930.874 727.231 934.624 731.332 936.884C735.156 938.98 739.784 939.145 742.36 933.769C743.441 931.536 745.741 931.729 747.681 932.997C751.31 935.34 754.968 933.41 758.57 933.052C764.195 932.528 767.188 927.648 771.538 925.139C778.493 921.114 787.332 919.598 793.844 915.683C808.751 906.668 820.417 917.254 833.44 918.991C835.823 919.295 836.211 921.721 836.987 923.596C840.589 932.115 848.403 936.305 857.103 933.741C859.431 933.052 860.622 934.155 862.368 934.458C871.761 936.085 881.46 938.759 890.576 934.127C895.231 931.756 898.501 927.593 895.203 921.528C888.387 908.901 889.856 903.525 899.748 893.792C903.627 889.988 906.148 889.519 910.637 891.642C920.141 896.081 930.726 897.128 940.618 900.63C946.631 902.753 950.039 904.021 950.483 911.079C951.176 922.658 969.63 935.092 979.66 929.688C990.883 923.623 1001.27 921.721 1013.99 923.237C1023.39 924.34 1027.76 935.423 1037.9 932.666C1038.1 932.611 1038.71 934.1 1039.1 934.872C1042.01 941.02 1047.05 942.564 1053.48 942.288C1059.82 942.012 1066.22 942.729 1072.6 942.674C1076.64 942.619 1081.49 943.997 1084.57 941.351C1092.21 934.817 1101.44 932.418 1110.67 929.799C1114.08 928.834 1115.96 926.601 1116.88 923.237C1120.51 910.031 1132.31 904.71 1144.5 910.555C1147.63 912.044 1150.82 912.898 1154.25 910.583C1159.13 907.302 1164.01 906.419 1169.33 910.638C1174.29 914.58 1182.1 914.304 1185.73 911.768C1192.49 907.054 1197.15 899.334 1202.63 892.828C1203.02 892.359 1202.97 891.642 1202.55 891.173C1196.32 884.722 1201.22 877.609 1201.78 870.992C1202.3 864.651 1202.39 857.924 1205.46 852.052C1211.06 841.437 1209.17 835.537 1198.09 830.492C1197.23 830.106 1196.59 829.941 1197.12 828.755C1199.2 824.096 1199.59 818.003 1204.05 815.273C1213.36 809.594 1223.25 804.824 1233.03 799.972C1235.44 798.786 1238.02 798.759 1241.15 799.476C1246.25 800.634 1252.79 804.604 1256.72 800.909C1261.05 796.829 1262.9 799.228 1266.2 800.882C1275.04 805.321 1281.72 811.662 1287.34 819.933C1296.18 832.918 1311.5 840.39 1318.54 855.25C1320.51 859.413 1325.27 861.287 1329.87 859.302C1340.29 854.809 1350.19 856.683 1360.22 860.874C1361.68 861.481 1363.26 861.701 1364.87 861.839C1370.16 862.335 1376.26 867.711 1377.06 872.894C1377.73 877.25 1387.56 883.371 1390.7 880.807C1394.96 877.306 1400.34 876.754 1404.72 873.997C1407.52 872.205 1411.06 871.185 1411.67 866.829C1413.17 856.022 1423.48 851.362 1428.88 843.229C1429.63 842.099 1432.59 838.956 1433.06 842.76C1433.84 849.129 1444.2 853.871 1436.42 861.701C1435.92 862.197 1436.5 863.934 1436.83 865.037C1441.35 880.145 1444.04 895.364 1443.56 911.299C1443.43 916.041 1442.82 916.62 1439.08 916.234C1425.22 914.801 1419.65 924.671 1415.27 934.651C1412.36 941.268 1417.46 947.416 1420.57 953.123C1422.59 956.872 1425.83 960.153 1429.07 963.02C1433.23 966.687 1436.69 969.637 1430.26 974.49C1428.27 976.006 1427.38 979.866 1430.82 980.803C1434.64 981.851 1437.27 986.069 1441.76 984.746C1442.73 984.47 1443.04 983.312 1442.35 982.568C1436.55 976.557 1447.31 975.51 1445.95 970.768C1445.75 970.106 1447.58 968.672 1448.11 970.492C1449.69 976.034 1450.88 973.442 1452.1 970.437C1452.57 969.279 1452.6 966.687 1454.48 968.507C1460.85 974.6 1466.62 968.204 1471.47 966.715C1482.61 963.296 1496.71 935.588 1495.88 922.713C1495.05 909.921 1497.57 897.432 1499.73 884.97C1501.75 873.308 1504.11 861.922 1503.11 849.818C1501.67 832.422 1499.59 814.915 1503.08 797.38C1504.27 791.481 1501.12 785.663 1498.76 780.535C1493.99 770.086 1488.34 760.078 1481.25 750.76C1478.15 746.679 1476.07 742.296 1474.63 737.719C1472.02 729.641 1471.33 720.984 1470.11 712.355C1470.03 711.693 1469.94 709.901 1469.5 709.157C1469.2 708.633 1468.53 708.964 1468.36 708.991C1460.27 711.004 1462.02 698.873 1455.45 698.68C1457.28 690.63 1451.52 691.319 1446.61 691.154C1441.26 690.961 1436.25 689.996 1431.73 686.825C1428.82 684.785 1424.17 683.186 1422.03 684.73C1418.24 687.487 1415.52 691.677 1410.37 692.477C1410.56 693.249 1410.51 694.241 1410.98 694.765C1417.16 701.575 1408.96 706.593 1408.68 712.603C1408.65 713.182 1406.88 713.706 1405.91 714.257C1405.63 713.265 1404.99 712.189 1405.16 711.252C1406.16 705.903 1397.62 705.655 1399.04 699.893C1399.2 699.259 1396.57 699.673 1395.63 700.941C1393.72 703.422 1392.8 705.986 1394.8 708.881C1395.74 710.232 1399.26 711.473 1395.68 713.265C1392.72 714.726 1393.22 711.666 1392.25 710.067C1389.89 706.234 1387.45 701.603 1383.8 699.7C1380.64 698.074 1378.67 703.284 1376.15 705.517C1373.02 708.274 1368.61 707.144 1365.62 705.517C1363.04 704.111 1364.87 700.555 1366.26 698.515C1371.27 691.071 1370.27 681.862 1373.93 674.033C1379.25 662.646 1376.54 650.102 1378.84 638.302C1381.25 626.006 1384.99 613.93 1381.91 601.138C1381.44 599.208 1383.02 596.754 1383.74 594.576C1384.54 592.095 1385.49 589.724 1385.21 586.967C1383.46 570.563 1399.23 552.449 1416.44 551.154C1418.77 550.988 1420.18 549.003 1419.82 547.955C1416.83 539.105 1424.31 540.043 1428.71 538.058C1429.99 537.479 1431.93 536.679 1432.12 535.687C1433.06 530.835 1435.36 529.153 1440.6 529.428C1444.2 529.621 1444.87 526.368 1442.32 523.308C1438.27 518.456 1440.54 513.19 1446.78 511.039C1451.05 509.551 1457.42 511.205 1458.64 503.568C1459 501.335 1464.29 502.686 1466.31 503.981C1469.44 505.966 1464.54 505.663 1464.65 507.29C1464.79 509.44 1461.6 511.949 1463.76 513.355C1465.79 514.679 1469.31 515.809 1471.69 513.576C1473.85 511.536 1477.34 509.909 1476.21 505.884C1475.82 504.533 1474.82 502.741 1477.31 502.934C1484.46 503.485 1481.75 497.613 1482.88 494.442C1483.47 492.816 1481.41 489.369 1483.96 489.287C1490.17 489.039 1490.36 482.89 1494.11 480.326C1495.57 479.306 1498.23 477.928 1496.77 475.584C1495.27 473.186 1492 472.111 1489.78 473.572C1479.5 480.244 1480.08 469.657 1477.06 465.549C1475.76 463.757 1476.18 460.448 1476.32 457.884C1476.73 450.716 1476.01 443.851 1473.74 437.317C1472.71 434.395 1471.44 431.555 1469.75 428.771C1469.2 427.861 1469.22 426.538 1469.11 425.407C1468.36 418.018 1477.23 404.647 1484.6 401.614C1486.73 400.732 1488.73 399.188 1487.18 396.238C1486.62 395.218 1486.15 393.757 1487.68 393.371C1488.4 393.205 1489.89 394.226 1490.31 395.08C1491.33 397.093 1492.03 399.271 1492.66 401.449C1494.22 406.77 1498.23 408.727 1502.53 406.549C1505 405.309 1503.67 408.148 1504.39 408.893C1505.6 410.133 1506.66 412.008 1508.49 411.705C1511.12 411.291 1509.12 408.865 1509.73 407.404C1510.32 405.998 1511.06 404.785 1510.81 402.745C1509.68 393.178 1501.92 383.363 1511.51 373.824C1512.53 372.804 1512.48 368.806 1507.71 367.896C1499.26 366.242 1494.8 355.793 1497.96 348.322C1499.04 345.758 1501.23 345.344 1502.83 345.675C1505.55 346.226 1502.92 348.156 1502.89 349.397C1502.83 352.871 1503.25 355.793 1506.8 357.337C1513.09 360.039 1513.59 368.641 1521.21 370.929C1522.76 371.398 1526.36 379.917 1524.86 387.057C1521.81 401.559 1530.04 415.179 1532.12 429.487C1532.51 432.134 1533.12 434.753 1533.81 437.372C1537.75 452.315 1544.7 466.955 1532.48 482.118C1531.26 483.635 1532.59 485.179 1534.87 485.592C1541.24 486.723 1542.54 490.803 1542.85 496.923C1543.07 501.638 1541.63 507.014 1544.87 511.315C1556.78 527.057 1569.64 541.78 1587.15 551.815C1601.95 560.307 1617.13 568.357 1630.9 578.31C1637.19 582.859 1643.9 586.415 1650.36 590.468C1653.54 592.371 1653.04 589.062 1652.85 587.325Z" fill="url(#paint0_linear)"/>
    <path d="M834.256 677.128L834.289 390.748L551.799 390.781L-223.666 1169.1L60.2107 1454.02L834.256 677.128Z" fill="url(#paint1_linear)"/>
    <path d="M31 654C185 234 1253 90.0002 1493 936" stroke="#0F347C" stroke-opacity="0.5" stroke-dasharray="4 4"/>
    <defs>
        <linearGradient id="paint0_linear" x1="68.216" y1="484.877" x2="2831.59" y2="1432.38" gradientUnits="userSpaceOnUse">
            <stop offset="0.00260044" stop-color="#A0B2E0"/>
            <stop offset="1" stop-color="#E1E0E7"/>
        </linearGradient>
        <linearGradient id="paint1_linear" x1="377.121" y1="932" x2="521.727" y2="248.825" gradientUnits="userSpaceOnUse">
            <stop offset="0.0190612" stop-color="#E31C24" stop-opacity="0"/>
            <stop offset="0.61403" stop-color="#E31C24" stop-opacity="0.415053"/>
            <stop offset="1" stop-color="#E31C24"/>
        </linearGradient>
    </defs>
</svg>
