<?xml version="1.0" encoding="UTF-8" standalone="no"?>
<svg
   xmlns:dc="http://purl.org/dc/elements/1.1/"
   xmlns:cc="http://creativecommons.org/ns#"
   xmlns:rdf="http://www.w3.org/1999/02/22-rdf-syntax-ns#"
   xmlns:svg="http://www.w3.org/2000/svg"
   xmlns="http://www.w3.org/2000/svg"
   xmlns:sodipodi="http://sodipodi.sourceforge.net/DTD/sodipodi-0.dtd"
   xmlns:inkscape="http://www.inkscape.org/namespaces/inkscape"
   version="1.1"
   id="svg2"
   xml:space="preserve"
   width="723.08002"
   height="158.94667"
   viewBox="0 0 723.08002 158.94667"
   sodipodi:docname="RussianRealty.eps"><metadata
     id="metadata8"><rdf:RDF><cc:Work
         rdf:about=""><dc:format>image/svg+xml</dc:format><dc:type
           rdf:resource="http://purl.org/dc/dcmitype/StillImage" /></cc:Work></rdf:RDF></metadata><defs
     id="defs6" /><sodipodi:namedview
     pagecolor="#ffffff"
     bordercolor="#666666"
     borderopacity="1"
     objecttolerance="10"
     gridtolerance="10"
     guidetolerance="10"
     inkscape:pageopacity="0"
     inkscape:pageshadow="2"
     inkscape:window-width="640"
     inkscape:window-height="480"
     id="namedview4" /><g
     id="g10"
     inkscape:groupmode="layer"
     inkscape:label="ink_ext_XXXXXX"
     transform="matrix(1.3333333,0,0,-1.3333333,0,158.94667)"><g
       id="g12"
       transform="scale(0.1)"><path
         d="M 2666.71,9.51953 V 51.5898 l -147.37,198.2972 143.28,192.871 v 42.121 h -52.25 l -146.71,-205.07 h -48.88 v 205.07 h -65.22 v -205.07 h -48.85 l -146.7,205.07 h -52.28 V 442.758 L 2245,249.887 2097.67,51.5898 V 9.51953 h 52.23 L 2301.38,221.391 h 48.18 V 9.51953 h 65.22 V 221.391 h 48.18 L 2614.43,9.51953 h 52.28"
         style="fill:#231f20;fill-opacity:1;fill-rule:nonzero;stroke:none"
         id="path14" /><path
         d="M 760.523,9.51953 V 67.9297 H 539.16 V 221.391 h 214.57 v 58.418 H 539.16 v 146.66 h 221.363 v 58.41 H 473.941 V 9.51953 h 286.582"
         style="fill:#231f20;fill-opacity:1;fill-rule:nonzero;stroke:none"
         id="path16" /><path
         d="m 4637.81,69.9609 v 53.6411 h -40.02 c -32.6,-36.0004 -79.48,-58.3911 -135.16,-58.3911 -105.93,0 -182,81.4491 -182,181.9801 0,100.5 76.07,181.993 182,181.993 55.68,0 102.56,-22.422 135.16,-58.426 h 40.02 v 53.66 c -44.13,43.469 -105.22,69.973 -175.18,69.973 -142.62,0 -247.21,-108.653 -247.21,-247.2 C 4215.42,108.66 4320.01,0 4462.63,0 c 69.96,0 131.05,26.4805 175.18,69.9609"
         style="fill:#231f20;fill-opacity:1;fill-rule:nonzero;stroke:none"
         id="path18" /><path
         d="m 5033.19,426.469 v 58.422 h -353.08 v -58.422 h 143.96 V 9.53125 h 65.19 V 426.469 h 143.93"
         style="fill:#231f20;fill-opacity:1;fill-rule:nonzero;stroke:none"
         id="path20" /><path
         d="m 1567.2,145.32 c 0,-44.109 -32.61,-77.3981 -77.44,-77.3981 H 1369.57 V 222.73 h 120.19 c 44.83,0 77.44,-33.261 77.44,-77.41 m -23.09,207.789 c 0,-42.089 -30.57,-73.3 -73.37,-73.3 h -101.17 v 146.66 h 101.17 c 42.8,0 73.37,-31.231 73.37,-73.36 m 90.32,-211.179 c 0,52.304 -32.63,107.285 -87.62,118.808 v 2.715 c 41.43,16.356 63.84,54.375 63.84,96.434 0,69.961 -53.64,125.004 -125.65,125.004 H 1304.36 V 9.51953 h 195.59 c 84.89,0 134.48,63.82027 134.48,132.41047"
         style="fill:#231f20;fill-opacity:1;fill-rule:nonzero;stroke:none"
         id="path22" /><path
         d="M 2039.7,9.51953 V 484.879 h -50.22 L 1768.12,141.93 h -2.07 c 0,18.332 0.7,97.109 0.7,120.195 v 222.754 h -65.21 V 9.51953 h 50.25 L 1973.2,352.438 h 2.03 c 0,-18.333 -0.7,-97.11 -0.7,-120.188 V 9.51953 h 65.17"
         style="fill:#231f20;fill-opacity:1;fill-rule:nonzero;stroke:none"
         id="path24" /><path
         d="M 3087.95,9.51953 V 484.879 h -50.23 L 2816.36,141.93 h -2.06 c 0,18.332 0.69,97.109 0.69,120.195 v 222.754 h -65.2 V 9.51953 h 50.24 L 3021.45,352.438 h 2.03 c 0,-18.333 -0.72,-97.11 -0.72,-120.188 V 9.51953 h 65.19"
         style="fill:#231f20;fill-opacity:1;fill-rule:nonzero;stroke:none"
         id="path26" /><path
         d="M 5423.06,9.51953 V 484.879 h -50.23 L 5151.46,141.93 h -2.05 c 0,18.332 0.69,97.109 0.69,120.195 v 222.754 h -65.21 V 9.51953 h 50.25 L 5356.55,352.438 h 2.03 c 0,-18.333 -0.71,-97.11 -0.71,-120.188 V 9.51953 h 65.19"
         style="fill:#231f20;fill-opacity:1;fill-rule:nonzero;stroke:none"
         id="path28" /><path
         d="M 3618.8,9.51953 V 484.879 h -69.28 L 3402.17,256.684 h -4.11 l -147.32,228.195 h -69.28 V 9.51953 h 65.16 V 282.523 c 0,5.422 -2.03,85.528 -2.68,99.141 h 1.36 L 3397.4,145.98 h 5.46 l 152.1,235.684 h 1.37 c -0.71,-13.613 -2.75,-93.719 -2.75,-99.141 V 9.51953 h 65.22"
         style="fill:#231f20;fill-opacity:1;fill-rule:nonzero;stroke:none"
         id="path30" /><path
         d="m 4098.5,247.184 c 0,-100.524 -76.03,-181.9652 -181.96,-181.9652 -105.93,0 -182.01,81.4412 -182.01,181.9652 0,100.507 76.08,182 182.01,182 105.93,0 181.96,-81.493 181.96,-182 m 65.23,0 c 0,138.562 -104.59,247.214 -247.19,247.214 -142.64,0 -247.22,-108.652 -247.22,-247.214 C 3669.32,108.66 3773.9,0 3916.54,0 c 142.6,0 247.19,108.66 247.19,247.184"
         style="fill:#231f20;fill-opacity:1;fill-rule:nonzero;stroke:none"
         id="path32" /><path
         d="M 726.645,840.984 H 585.359 l 68.618,173.866 h 4.054 z M 863.789,627.086 v 42.062 L 686.547,1102.46 H 625.48 L 448.191,669.148 v -42.062 h 55.067 l 61.726,155.496 h 182.004 l 61.774,-155.496 h 55.027"
         style="fill:#231f20;fill-opacity:1;fill-rule:nonzero;stroke:none"
         id="path34" /><path
         d="m 1236.64,627.086 v 475.364 h -50.25 L 964.984,759.5 h -2.039 c 0,18.336 0.711,97.109 0.711,120.191 V 1102.45 H 898.438 V 627.086 h 50.257 l 221.415,342.93 h 2.03 c 0,-18.336 -0.7,-97.118 -0.7,-120.196 V 627.086 Z m -72.68,564.974 h -38.73 c 0,-25.79 -18.31,-44.11 -44.13,-44.11 -25.76,0 -44.12,18.32 -44.12,44.11 h -38.734 c 0,-49.56 32.654,-82.83 82.854,-82.83 50.26,0 82.86,33.27 82.86,82.83"
         style="fill:#231f20;fill-opacity:1;fill-rule:nonzero;stroke:none"
         id="path36" /><path
         d="m 2292.33,627.086 v 42.074 l -147.37,198.297 143.28,192.873 v 42.12 h -52.25 L 2089.28,897.379 h -48.89 v 205.071 h -65.21 V 897.379 h -48.85 l -146.7,205.071 h -52.28 v -42.12 L 1870.61,867.457 1723.29,669.16 v -42.074 h 52.23 l 151.47,211.879 h 48.19 V 627.086 h 65.21 v 211.879 h 48.19 l 151.47,-211.879 h 52.28"
         style="fill:#231f20;fill-opacity:1;fill-rule:nonzero;stroke:none"
         id="path38" /><path
         d="m 2635.96,627.086 v 58.426 H 2414.6 v 153.453 h 214.57 v 58.414 H 2414.6 v 146.661 h 221.36 v 58.41 H 2349.38 V 627.086 h 286.58"
         style="fill:#231f20;fill-opacity:1;fill-rule:nonzero;stroke:none"
         id="path40" /><path
         d="m 3111.12,687.527 v 53.645 h -40.02 c -32.59,-35.992 -79.47,-58.391 -135.14,-58.391 -105.93,0 -182,81.457 -182,181.985 0,100.496 76.07,181.994 182,181.994 55.67,0 102.55,-22.42 135.14,-58.424 h 40.02 V 1042 c -44.12,43.45 -105.22,69.96 -175.16,69.96 -142.64,0 -247.21,-108.65 -247.21,-247.194 0,-138.539 104.57,-247.188 247.21,-247.188 69.94,0 131.04,26.469 175.16,69.949"
         style="fill:#231f20;fill-opacity:1;fill-rule:nonzero;stroke:none"
         id="path42" /><path
         d="m 3501.77,1044.04 v 58.42 h -353.13 v -58.42 h 143.98 V 627.086 h 65.17 v 416.954 h 143.98"
         style="fill:#231f20;fill-opacity:1;fill-rule:nonzero;stroke:none"
         id="path44" /><path
         d="m 416.734,686.063 h -55.703 v 416.977 h -152.34 c -84.367,0 -152.7496,-70.56 -152.7496,-157.665 H 55.6875 V 686.063 H 0 v -58.282 h 416.734 z m -301.57,199.859 h 0.242 v 59.453 c 0,54.156 41.844,98.195 93.285,98.195 h 92.875 V 687.137 H 115.164 v 198.785"
         style="fill:#231f20;fill-opacity:1;fill-rule:nonzero;stroke:none"
         id="path46" /><path
         d="m 1684.75,686.063 h -55.7 v 416.977 h -152.34 c -84.37,0 -152.75,-70.56 -152.75,-157.665 h -0.24 V 686.063 h -55.7 v -58.282 h 416.73 z m -301.57,199.859 h 0.24 v 59.453 c 0,54.156 41.85,98.195 93.29,98.195 h 92.87 V 687.137 h -186.4 v 198.785"
         style="fill:#231f20;fill-opacity:1;fill-rule:nonzero;stroke:none"
         id="path48" /><path
         d="m 1243.68,64.6602 h -55.71 V 481.648 h -152.34 c -84.36,0 -152.743,-70.558 -152.743,-157.66 h -0.254 V 64.6602 H 826.938 V 6.39063 H 1243.68 Z M 942.109,264.516 h 0.235 v 59.472 c 0,54.153 41.844,98.196 93.286,98.196 h 92.88 V 65.7383 H 942.109 V 264.516"
         style="fill:#231f20;fill-opacity:1;fill-rule:nonzero;stroke:none"
         id="path50" /><path
         d="M 323.051,277.887 H 86.6367 V 483.535 H 21.9805 V 8.16016 H 86.6367 V 212.699 l 236.4143,0.137 V 8.16016 h 64.273 V 483.535 H 323.051 V 277.887"
         style="fill:#231f20;fill-opacity:1;fill-rule:nonzero;stroke:none"
         id="path52" /></g></g></svg>
