<svg width="181" height="64" viewBox="0 0 181 64" fill="none" xmlns="http://www.w3.org/2000/svg">
<g clip-path="url(#clip0)">
<path d="M52.4447 8.52528H9.33604L12.4417 0H55.5504L52.4447 8.52528ZM50.8926 12.7886H7.76424L4.65854 21.3139H47.7672L50.8926 12.7886ZM46.234 25.538H3.10569L0 34.064H43.07L46.234 25.538Z" fill="#009FDF"/>
<path d="M155.16 55.3969H162.924C165.165 55.664 167.392 54.7994 168.863 53.0913C169.929 51.6997 170.465 49.9763 170.378 48.2275C170.526 45.967 169.527 43.7836 167.719 42.4146C166.278 41.4736 164.564 41.0369 162.847 41.1745H155.16V55.3969ZM144.97 63.9811V12.7887H178.335L175.404 21.3722H155.16V32.7074H163.409C170.066 32.7074 173.521 34.2962 175.909 36.3311C179.367 39.3878 181.233 43.8571 180.975 48.4604C181.241 53.4319 178.969 58.201 174.939 61.1326C171.736 63.3414 168.378 63.9615 161.546 63.9615L144.97 63.9811ZM115.429 63.9811V21.3525H100.599V12.7887H141.767L138.837 21.3722H125.716V64L115.429 63.9811ZM74.3382 33.2889H80.161C81.3522 33.3704 82.5486 33.2787 83.7128 33.0175C86.2076 32.222 87.8188 29.8094 87.595 27.2046C87.9296 24.6035 86.2616 22.164 83.7128 21.5272C82.4414 21.2324 81.135 21.1153 79.8307 21.1786H74.3374V33.2889H74.3382ZM74.3382 42.1439V55.5716H81.4419C83.3994 55.795 85.3685 55.2535 86.9352 54.0599C88.3969 52.7077 89.1799 50.7762 89.0705 48.7893C89.1011 47.2217 88.6251 45.686 87.7116 44.4102C86.1974 42.4729 84.334 42.1046 81.151 42.1046L74.3382 42.1439ZM90.759 36.7379V36.9126C92.4897 37.5778 94.1067 38.5057 95.5531 39.6643C98.5188 42.1213 100.134 45.8418 99.9011 49.6816C99.9011 56.6763 96.1742 61.7337 90.0606 63.2453C87.6234 63.8399 85.1133 64.0815 82.6069 63.9622H64.1484V12.7887H80.5692C83.177 12.6933 85.7869 12.9342 88.3335 13.5055C94.2729 15.0943 98.174 19.183 98.174 25.6348C98.2717 28.7439 97.0863 31.7562 94.8941 33.9665C93.7422 35.1339 92.3701 36.0625 90.8567 36.6986L90.759 36.7379Z" fill="white"/>
</g>
<defs>
<clipPath id="clip0">
<rect width="181" height="64" fill="white"/>
</clipPath>
</defs>
</svg>
