<svg width="204" height="78" viewBox="0 0 204 78" fill="none" xmlns="http://www.w3.org/2000/svg">
<path d="M204 0V40.4679L167.291 77.0676H86.5801L163.534 0H204Z" fill="url(#paint0_linear)"/>
<path d="M23.0784 19.4492V33.5565H25.5062V38.9648H19.3958H7.83815H1.41406V33.831L3.45323 33.478C3.71347 33.2962 3.98085 33.068 4.25535 32.7935C4.52985 32.519 4.79723 32.1768 5.05747 31.7739C5.31771 31.371 5.53874 30.8648 5.72056 30.2658C5.90237 29.6633 6.02002 28.9325 6.07349 28.0733L6.70093 19.4528H23.0784V19.4492ZM15.8308 24.9395H12.658L12.3835 28.7007C12.3051 29.6134 12.1803 30.4655 12.0092 31.2463C11.8416 32.0306 11.56 32.683 11.1678 33.2071H15.8308V24.9395Z" fill="#0F347C"/>
<path d="M45.4192 28.9325C45.9931 29.1428 46.4708 29.4245 46.8487 29.7774C47.2266 30.1304 47.5296 30.5154 47.7507 30.9325C47.9717 31.3496 48.1285 31.7632 48.2212 32.1661C48.3139 32.5689 48.3603 32.929 48.3603 33.2427C48.3603 34.1554 48.1642 34.9647 47.772 35.6706C47.3799 36.3765 46.838 36.9719 46.1464 37.4532C45.4548 37.9345 44.6313 38.3088 43.6794 38.569C42.724 38.8329 41.6866 38.9612 40.5637 38.9612H29.4766V19.4492H40.0574C42.7454 19.4492 44.7311 19.9555 46.0109 20.9573C47.2908 21.9626 47.9325 23.3031 47.9325 24.9752C47.9325 25.5777 47.7578 26.2515 47.4048 26.993C47.0519 27.7382 46.3924 28.3442 45.4263 28.8184V28.9325H45.4192ZM40.364 25.8379C40.364 25.0821 39.9719 24.7007 39.1876 24.7007H36.799V26.936H39.1876C39.5797 26.936 39.8756 26.8326 40.0681 26.6223C40.2678 26.4119 40.364 26.1517 40.364 25.8379ZM40.913 31.9914C40.913 31.6776 40.8096 31.4103 40.5993 31.1892C40.389 30.9682 40.0895 30.8577 39.6974 30.8577H36.7955V33.3247H39.6974C40.0895 33.3247 40.389 33.1857 40.5993 32.9112C40.8096 32.6367 40.913 32.3301 40.913 31.9914Z" fill="#0F347C"/>
<path d="M58.5088 30.7771L62.6228 25.0159L66.5799 19.5684H71.086V38.9663H65.6423V28.1924H65.4854L62.3126 32.6595L57.728 38.9698H52.9082V19.5684H58.3947V30.7771H58.5088Z" fill="#0F347C"/>
<path d="M83.9895 30.9732C83.2836 30.9732 82.6776 31.205 82.1678 31.6613C81.658 32.1176 81.2195 32.8948 80.8559 33.9893C80.6206 34.8271 80.3782 35.6543 80.1322 36.4778C79.8862 37.3013 79.6438 38.132 79.4085 38.9663H74.9023C75.2161 37.9217 75.5369 36.8807 75.8649 35.8503C76.1893 34.82 76.5101 33.7683 76.8239 32.6988C77.1126 31.7326 77.4763 30.9055 77.9219 30.2103C78.3639 29.5187 79.0448 29.0694 79.961 28.8591C79.2302 28.6523 78.6277 28.2245 78.1607 27.5864C77.6902 26.9446 77.3123 26.1567 77.0235 25.212L75.2588 19.5719H79.6081L81.1767 24.6665C81.3585 25.294 81.5867 25.7967 81.8612 26.1746C82.1357 26.5525 82.4351 26.8377 82.7631 27.0373C83.0911 27.237 83.4298 27.3582 83.7827 27.4117C84.1356 27.4651 84.4814 27.4901 84.8201 27.4901H86.8949V19.5684H91.3226V27.4865H93.3226C94.0784 27.4865 94.7985 27.2512 95.4758 26.7806C96.1568 26.31 96.7058 25.4223 97.1229 24.1175L98.5346 19.5719H102.884L101.119 25.212C100.83 26.1532 100.453 26.9446 99.982 27.5864C99.5114 28.2245 98.9089 28.6488 98.1781 28.8591C99.0943 29.0694 99.7716 29.5222 100.217 30.2103C100.659 30.9055 101.027 31.7326 101.315 32.6988C101.629 33.7719 101.95 34.82 102.278 35.8503C102.606 36.8807 102.923 37.9217 103.237 38.9663H98.7307C98.4954 38.132 98.253 37.3013 98.007 36.4778C97.761 35.6543 97.5186 34.8271 97.2833 33.9893C96.8626 32.7344 96.3564 31.9216 95.7539 31.5401C95.1514 31.1622 94.4491 30.9697 93.6399 30.9697H91.3262V38.9627H86.8985V30.9732H83.9895Z" fill="#0F347C"/>
<path d="M109.931 30.3443V30.658C109.931 31.4209 110.035 32.1482 110.245 32.8292C110.455 33.5137 110.769 34.1126 111.186 34.6224C111.603 35.1358 112.127 35.5387 112.755 35.8274C113.382 36.1162 114.113 36.2624 114.947 36.2624C115.575 36.2624 116.298 36.102 117.122 35.7918C117.945 35.4781 118.683 35.0217 119.336 34.4192L121.411 36.7259C120.494 37.6029 119.464 38.2339 118.316 38.6225C117.165 39.0075 115.992 39.2001 114.79 39.2001C113.796 39.2001 112.812 39.0646 111.832 38.7901C110.855 38.5156 109.971 38.0129 109.186 37.282C108.402 36.5512 107.767 35.5458 107.286 34.2659C106.801 32.986 106.562 31.3425 106.562 29.3282C106.562 27.4208 106.812 25.8237 107.308 24.526C107.803 23.2354 108.445 22.2015 109.226 21.4314C110.01 20.6613 110.883 20.1123 111.853 19.7879C112.819 19.4599 113.76 19.2959 114.673 19.2959C115.742 19.2959 116.748 19.4884 117.689 19.8663C118.63 20.2442 119.453 20.8004 120.156 21.5312C120.862 22.2621 121.414 23.1569 121.821 24.2158C122.223 25.2746 122.427 26.4832 122.427 27.8415V30.3478H109.931V30.3443ZM114.516 22.3512C113.183 22.3512 112.11 22.8076 111.3 23.7202C110.491 24.6365 110.035 25.9413 109.928 27.6383H119.058C118.979 25.8914 118.534 24.5687 117.724 23.681C116.919 22.7969 115.849 22.3512 114.516 22.3512Z" fill="#0F347C"/>
<path d="M139.794 38.9648V29.9129H129.645V38.9648H127.178V19.5312H129.645V27.9165H139.794V19.5312H142.261V38.9648H139.794Z" fill="#0F347C"/>
<path d="M161.781 38.9663V22.4668L158.609 26.8163L149.596 38.9627H147.91V19.5684H149.636V36.3423L153.201 31.483L162.017 19.5684H163.507V38.9663H161.781Z" fill="#0F347C"/>
<path d="M176.755 39.3472C175.781 39.3472 174.79 39.2117 173.806 38.9515C172.812 38.6877 171.899 38.185 171.097 37.4577C170.291 36.7268 169.628 35.7072 169.129 34.4202C168.63 33.1332 168.377 31.429 168.377 29.3648C168.377 27.3755 168.616 25.6999 169.086 24.3915C169.557 23.0795 170.174 22.0313 170.926 21.2755C171.675 20.5233 172.527 19.985 173.45 19.6819C174.366 19.3789 175.286 19.2256 176.181 19.2256C177.578 19.2256 178.769 19.4716 179.728 19.9636C180.69 20.452 181.485 21.1222 182.091 21.9529C182.694 22.78 183.136 23.764 183.4 24.8728C183.66 25.978 183.792 27.1438 183.792 28.3452V29.2365H169.493C169.5 30.4451 169.61 31.6002 169.824 32.6733C170.042 33.7749 170.43 34.766 170.983 35.611C171.536 36.4595 172.281 37.1297 173.197 37.611C174.117 38.0959 175.286 38.3454 176.673 38.3454C177.489 38.3454 178.32 38.2064 179.147 37.939C179.967 37.6716 180.722 37.3008 181.393 36.8374L181.475 36.7803L182.202 37.6502L182.106 37.7179C180.555 38.8018 178.755 39.3472 176.755 39.3472ZM182.598 28.1598C182.484 25.5109 181.874 23.5216 180.787 22.2453C179.692 20.9582 178.163 20.3023 176.245 20.3023C174.199 20.3023 172.591 20.9939 171.468 22.3593C170.356 23.7141 169.721 25.6642 169.578 28.1598H182.598Z" fill="#0F347C"/>
<path d="M176.19 19.3356C177.569 19.3356 178.735 19.5745 179.687 20.0594C180.639 20.5407 181.412 21.1966 182.011 22.0166C182.61 22.8402 183.042 23.7992 183.302 24.8973C183.562 25.9953 183.694 27.1433 183.694 28.3447V29.1291H169.395C169.395 30.384 169.505 31.5712 169.726 32.6942C169.947 33.8172 170.34 34.8083 170.903 35.6711C171.466 36.5339 172.215 37.2148 173.156 37.7068C174.093 38.2023 175.27 38.4519 176.682 38.4519C177.516 38.4519 178.354 38.3129 179.188 38.0383C180.022 37.7674 180.781 37.3931 181.462 36.9225L182.05 37.6284C180.507 38.7015 178.746 39.2362 176.76 39.2362C175.794 39.2362 174.821 39.1043 173.84 38.8441C172.86 38.5838 171.972 38.0954 171.177 37.3752C170.382 36.6551 169.733 35.6568 169.238 34.3769C168.742 33.0971 168.493 31.425 168.493 29.3608C168.493 27.3786 168.728 25.7315 169.195 24.4231C169.662 23.1182 170.268 22.0951 171.01 21.3464C171.751 20.6013 172.578 20.0808 173.491 19.7813C174.404 19.4854 175.302 19.3356 176.19 19.3356ZM169.47 28.2699H182.714C182.61 25.5283 181.997 23.4962 180.874 22.1771C179.751 20.858 178.211 20.1984 176.25 20.1984C174.158 20.1984 172.539 20.8972 171.391 22.2947C170.24 23.6887 169.598 25.6816 169.47 28.2699ZM176.19 19.1182C175.284 19.1182 174.354 19.275 173.427 19.5816C172.482 19.8918 171.619 20.4373 170.86 21.2002C170.097 21.9667 169.47 23.0291 168.992 24.3553C168.518 25.678 168.275 27.3643 168.275 29.3644C168.275 31.4464 168.532 33.1577 169.035 34.4589C169.537 35.7602 170.211 36.7977 171.031 37.5392C171.848 38.2772 172.774 38.787 173.787 39.0544C174.774 39.3182 175.776 39.4537 176.76 39.4537C178.781 39.4537 180.603 38.9011 182.172 37.8066L182.364 37.6711L182.214 37.4893L181.626 36.7834L181.501 36.6301L181.341 36.7442C180.682 37.2005 179.936 37.5677 179.124 37.8316C178.311 38.099 177.487 38.2344 176.682 38.2344C175.313 38.2344 174.161 37.992 173.256 37.5143C172.354 37.0401 171.623 36.3806 171.081 35.5499C170.536 34.7121 170.151 33.7352 169.937 32.6479C169.73 31.6104 169.623 30.4981 169.609 29.3394H183.694H183.911V29.1291V28.3447C183.911 27.1326 183.779 25.9561 183.516 24.8473C183.248 23.7279 182.803 22.7296 182.189 21.8883C181.573 21.0433 180.764 20.3624 179.787 19.8668C178.81 19.3713 177.601 19.1182 176.19 19.1182ZM169.698 28.0524C169.851 25.6352 170.475 23.7421 171.555 22.4266C172.657 21.0897 174.236 20.4087 176.247 20.4087C178.133 20.4087 179.63 21.0505 180.706 22.3125C181.762 23.5496 182.361 25.4819 182.485 28.0488H169.698V28.0524Z" fill="#0F347C"/>
<path d="M4.18885 61.6846H3.94643C1.47234 61.6846 0 60.0696 0 57.902C0 55.9304 1.45451 54.1194 3.92861 54.1194H4.18885V50.2227H5.03019V54.1194H5.30469C7.66471 54.1194 9.21547 55.77 9.21547 57.902C9.21547 60.0696 7.79304 61.6846 5.30469 61.6846H5.02662V64.772H4.18529V61.6846H4.18885ZM3.99278 60.8931H4.18529V54.9108H3.91078C2.00352 54.9108 0.88768 56.2513 0.88768 57.902C0.88768 59.6311 2.0356 60.8931 3.99278 60.8931ZM5.02662 54.9108V60.8931H5.23695C7.20839 60.8931 8.32423 59.6489 8.32423 57.902C8.32423 56.3333 7.22621 54.9108 5.30112 54.9108H5.02662Z" fill="#0F347C"/>
<path d="M16.1837 54.1201C18.4474 54.1201 19.9982 55.7209 19.9982 57.9027C19.9982 60.0846 18.4474 61.6853 16.1837 61.6853C13.9199 61.6853 12.3691 60.0846 12.3691 57.9027C12.3691 55.7209 13.9199 54.1201 16.1837 54.1201ZM16.1837 60.8939C17.8984 60.8939 19.1105 59.6639 19.1105 57.9027C19.1105 56.1558 17.8984 54.9116 16.1837 54.9116C14.501 54.9116 13.2568 56.1415 13.2568 57.9027C13.2568 59.6496 14.4832 60.8939 16.1837 60.8939Z" fill="#0F347C"/>
<path d="M23.6696 54.2643H24.5109V55.2341C25.0599 54.5888 26.1259 54.1182 27.1775 54.1182C29.2809 54.1182 30.5714 55.6369 30.5714 57.7867C30.5714 60.0006 29.099 61.6834 26.8353 61.6834C25.9476 61.6834 25.1063 61.5051 24.5074 61.0702V64.7708H23.666V54.2643H23.6696ZM24.5109 56.0433V60.2324C25.2703 60.7351 25.9975 60.8955 26.7747 60.8955C28.5358 60.8955 29.6837 59.6192 29.6837 57.8402C29.6837 56.1111 28.6962 54.9132 26.9529 54.9132C25.9333 54.9132 24.9815 55.448 24.5109 56.0433Z" fill="#0F347C"/>
<path d="M37.2837 61.5368C36.2178 64.1394 35.5369 64.7704 34.5529 64.7704C34.0823 64.7704 33.6973 64.6243 33.3088 64.3997L33.5833 63.7544C33.8578 63.8827 34.1501 63.9968 34.4388 63.9968C35.1839 63.9968 35.7151 63.3979 36.3319 61.929L36.4923 61.5404L32.9023 54.2604H33.9041L36.3925 59.4013L36.9094 60.5315C37.0235 60.1607 37.1696 59.7721 37.3122 59.3657L39.2694 54.2568H40.2248L37.2837 61.5368Z" fill="#0F347C"/>
<path d="M43.347 54.2627H44.1384L47.1615 58.3198L50.0705 54.2627H50.8299V61.5391H49.9885V55.5426L47.1579 59.4714H47.108L44.1812 55.5426V61.5391H43.3398V54.2627H43.347Z" fill="#0F347C"/>
<path d="M65.995 58.2414H61.2749V61.5391H60.4336V54.2627H61.2749V57.4464H65.995V54.2627H66.8363V61.5391H65.995V58.2414Z" fill="#0F347C"/>
<path d="M77.041 60.6514C76.378 61.3466 75.3263 61.6853 74.3566 61.6853C72.0608 61.6853 70.4922 60.1987 70.4922 57.9027C70.4922 55.785 71.7863 54.1201 74.1784 54.1201C76.0536 54.1201 77.476 55.4143 77.476 57.4036C77.476 57.6781 77.4581 57.8885 77.4261 58.081H71.4298C71.4939 59.8279 72.6597 60.8939 74.403 60.8939C75.3905 60.8939 76.2639 60.5231 76.763 60.0026L77.041 60.6514ZM71.3799 57.3858H76.6168C76.5847 55.8492 75.6151 54.9116 74.0964 54.9116C72.4814 54.9116 71.526 55.9633 71.3799 57.3858Z" fill="#0F347C"/>
<path d="M79.6562 60.7477H80.5618C81.0145 60.1666 81.5956 58.6122 81.7418 56.3162L81.8558 54.2627H86.4975V60.7477H87.7095V63.3823H86.9181V61.5391H80.4512V63.3823H79.6598V60.7477H79.6562ZM81.453 60.7477H85.6561V55.0577H82.6473L82.551 56.6406C82.3906 58.7441 81.8238 60.2771 81.453 60.7477Z" fill="#0F347C"/>
<path d="M90.8828 54.2618C91.5138 54.2618 92.2411 54.2119 93.2286 54.2119C95.2 54.2119 96.2374 54.7609 96.2374 56.0872C96.2374 56.8786 95.7205 57.6059 94.7651 57.7521V57.7842C96.0092 57.9767 96.5119 58.5756 96.5119 59.5311C96.5119 60.8573 95.4282 61.5846 93.2642 61.5846C92.3587 61.5846 91.5495 61.5347 90.8864 61.5347V54.2618H90.8828ZM91.7241 55.039V57.4954H93.6492C94.7009 57.4954 95.3462 56.9927 95.3462 56.2191C95.3462 55.2494 94.4264 55.0069 93.3248 55.0069C92.6296 55.0069 92.127 55.0248 91.7241 55.039ZM91.7241 58.1906V60.7611C92.1947 60.7753 92.6938 60.7932 93.3569 60.7932C94.8292 60.7932 95.6207 60.3725 95.6207 59.4527C95.6207 58.597 94.9255 58.1906 93.471 58.1906H91.7241Z" fill="#0F347C"/>
<path d="M100.273 61.5391V54.2627H101.115V60.327L105.963 54.2627H106.804V61.5391H105.963V55.4748L101.115 61.5391H100.273Z" fill="#0F347C"/>
<path d="M110.181 54.2627H111.215L114.028 57.7565L111.055 61.5391H110.035L113.09 57.7565L110.181 54.2627ZM114.545 54.2627H115.386V61.5391H114.545V54.2627ZM116.841 57.7565L119.946 61.5391H118.926L115.903 57.7565L118.734 54.2627H119.753L116.841 57.7565Z" fill="#0F347C"/>
<path d="M123.182 61.5391V54.2627H124.023V60.327L128.871 54.2627H129.713V61.5391H128.871V55.4748L124.023 61.5391H123.182Z" fill="#0F347C"/>
<path d="M133.884 54.2627H134.676L137.699 58.3198L140.608 54.2627H141.367V61.5391H140.526V55.5426L137.695 59.4714H137.645L134.718 55.5426V61.5391H133.877V54.2627H133.884Z" fill="#0F347C"/>
<path d="M148.856 54.1201C151.119 54.1201 152.67 55.7209 152.67 57.9027C152.67 60.0846 151.119 61.6853 148.856 61.6853C146.592 61.6853 145.041 60.0846 145.041 57.9027C145.041 55.7209 146.592 54.1201 148.856 54.1201ZM148.856 60.8939C150.57 60.8939 151.782 59.6639 151.782 57.9027C151.782 56.1558 150.57 54.9116 148.856 54.9116C147.173 54.9116 145.929 56.1415 145.929 57.9027C145.929 59.6496 147.159 60.8939 148.856 60.8939Z" fill="#0F347C"/>
<path d="M162.423 60.5053C161.81 61.2825 160.741 61.6853 159.675 61.6853C157.429 61.6853 155.828 60.1987 155.828 57.9027C155.828 55.785 157.379 54.1201 159.45 54.1201C160.58 54.1201 161.586 54.3625 162.281 55.0257L161.878 55.703C161.233 55.1219 160.423 54.9116 159.582 54.9116C158.046 54.9116 156.719 56.1736 156.719 57.9027C156.719 59.7459 158.046 60.8939 159.742 60.8939C160.68 60.8939 161.504 60.4732 162.006 59.8921L162.423 60.5053Z" fill="#0F347C"/>
<path d="M164.75 54.2627H171.377V55.1041H168.482V61.5391H167.641V55.1041H164.746V54.2627H164.75Z" fill="#0F347C"/>
<path d="M174.482 61.5391V54.2627H175.324V60.327L180.172 54.2627H181.014V61.5391H180.172V55.4748L175.324 61.5391H174.482Z" fill="#0F347C"/>
<defs>
<linearGradient id="paint0_linear" x1="145.066" y1="57.234" x2="200.257" y2="-9.41236" gradientUnits="userSpaceOnUse">
<stop stop-color="#E31C24" stop-opacity="0"/>
<stop offset="1" stop-color="#E31C24"/>
</linearGradient>
</defs>
</svg>
