<svg xmlns="http://www.w3.org/2000/svg" width="172" height="46" fill="none">
  <path fill="url(#a)" d="M172 0v24l-21.6 21.6h-47.6L148.3 0H172Z"/>
  <path fill="#fff" d="M19.7 16.7v12h2v4.7H1.3V29l1.7-.3a5.2 5.2 0 0 0 2-2.8l.3-1.9.5-7.3h14Zm-6.2 4.7h-2.7l-.2 3.2-.4 2.2c-.1.6-.3 1.2-.7 1.6h4v-7ZM38.7 24.8a3.5 3.5 0 0 1 2 1.7 4.4 4.4 0 0 1 0 4c-.3.7-.8 1.2-1.3 1.6-.6.4-1.3.7-2.1 1-.9.2-1.7.3-2.7.3h-9.5V16.7h9c2.4 0 4 .4 5.1 1.2a4.2 4.2 0 0 1 1.2 5.2c-.3.7-.8 1.2-1.7 1.6ZM34.4 22c0-.6-.3-1-1-1h-2v2h2c.4 0 .6-.1.8-.3l.2-.7Zm.5 5.3c0-.3 0-.5-.3-.7-.2-.2-.4-.3-.7-.3h-2.5v2.1h2.5c.3 0 .5 0 .7-.3.2-.3.3-.5.3-.8ZM49.9 26.4l3.5-5 3.4-4.6h3.8v16.6H56V24h-.1L53 28l-3.9 5.4h-4V16.8h4.6v9.6h.1ZM71.6 26.5c-.6 0-1 .2-1.5.6-.5.4-.8 1-1.1 2a134.5 134.5 0 0 1-1.3 4.3H64a171.5 171.5 0 0 1 2.6-7.5c.3-.6 1-1 1.7-1.2-.6-.2-1.1-.5-1.5-1-.4-.6-.8-1.3-1-2.1l-1.5-4.8h3.7l1.3 4.3.6 1.3.8.8.9.3H74v-6.7H78v6.7h1.7c.6 0 1.3-.2 1.8-.6.6-.4 1-1.1 1.4-2.2l1.2-4h3.7l-1.5 4.9c-.2.8-.5 1.5-1 2-.3.6-.8 1-1.5 1.1.8.2 1.4.6 1.8 1.2.4.6.7 1.3 1 2.1a119.3 119.3 0 0 0 1.6 5.4h-3.9A144.9 144.9 0 0 0 83 29c-.4-1-.8-1.8-1.3-2-.5-.4-1.1-.6-1.8-.6h-2v6.9H74v-6.9h-2.5ZM93.8 26v.3c0 .6 0 1.2.2 1.8.2.6.5 1.1.8 1.5.4.5.8.8 1.4 1 .5.3 1.1.5 1.8.5.6 0 1.2-.2 1.9-.4.7-.3 1.3-.7 1.9-1.2l1.8 2a7 7 0 0 1-2.7 1.6 9.4 9.4 0 0 1-5.5.1c-.9-.2-1.6-.6-2.3-1.3a6.7 6.7 0 0 1-1.6-2.6c-.4-1-.6-2.5-.6-4.2 0-1.6.2-3 .6-4.1.4-1.1 1-2 1.7-2.6.6-.7 1.4-1.2 2.2-1.5.8-.2 1.6-.4 2.4-.4 1 0 1.8.2 2.6.5a6 6 0 0 1 2 1.4c.7.7 1.2 1.4 1.5 2.3.3 1 .5 2 .5 3.1V26H93.8Zm3.9-6.9c-1.2 0-2 .4-2.8 1.2-.7.8-1 2-1.1 3.4h7.7c0-1.5-.4-2.7-1-3.4a3.5 3.5 0 0 0-2.8-1.2ZM119.2 33.4v-7.8h-8.6v7.8h-2.1V16.7h2V24h8.7v-7.2h2.1v16.7h-2ZM138 33.4V19.2l-2.7 3.8-7.7 10.4h-1.4V16.8h1.4V31l3-4.1 7.6-10.2h1.3v16.6H138ZM150.8 33.7c-.9 0-1.7-.1-2.6-.3-.8-.3-1.6-.7-2.3-1.3a6.8 6.8 0 0 1-1.6-2.6c-.5-1.1-.7-2.6-.7-4.4 0-1.7.2-3 .6-4.2.4-1.1 1-2 1.6-2.7.6-.6 1.4-1 2.1-1.3a7.4 7.4 0 0 1 5.4.2c.8.4 1.5 1 2 1.7a7 7 0 0 1 1.1 2.5c.2 1 .4 2 .4 3v.7h-12.2c0 1 0 2 .2 3a7 7 0 0 0 1 2.5 5 5 0 0 0 2 1.7c.7.4 1.7.6 2.9.6.7 0 1.4 0 2.1-.3.7-.2 1.3-.6 2-1l.6.7v.1a7.8 7.8 0 0 1-4.6 1.4Zm5-9.6c-.2-2.3-.7-4-1.6-5a4.8 4.8 0 0 0-3.9-1.7 5 5 0 0 0-4 1.7 8.5 8.5 0 0 0-1.7 5h11.1Z"/>
  <path fill="#fff" d="M150.3 16.6c1.2 0 2.1.2 3 .6.8.4 1.4 1 2 1.7.5.7.8 1.5 1 2.4.3 1 .4 2 .4 3v.6h-12.2c0 1.1 0 2.1.3 3.1.2 1 .5 1.8 1 2.5a5 5 0 0 0 1.9 1.8c.8.4 1.8.6 3 .6.7 0 1.4 0 2.1-.3l2-1 .5.6a7.7 7.7 0 0 1-4.5 1.4c-.9 0-1.7-.1-2.5-.3-.9-.3-1.6-.7-2.3-1.3a6.6 6.6 0 0 1-1.7-2.6c-.4-1-.6-2.5-.6-4.3 0-1.7.2-3 .6-4.2a7 7 0 0 1 1.6-2.6c.6-.7 1.3-1.1 2-1.4l2.4-.3Zm-5.8 7.6h11.3c0-2.3-.6-4-1.5-5.2a4.9 4.9 0 0 0-4-1.7 5 5 0 0 0-4.1 1.8 8.6 8.6 0 0 0-1.7 5.1Zm5.8-7.8c-.8 0-1.6.1-2.4.4-.8.2-1.5.7-2.2 1.4-.6.6-1.2 1.5-1.6 2.7a13 13 0 0 0-.6 4.2c0 1.8.2 3.3.7 4.4.4 1.1 1 2 1.7 2.6.7.7 1.5 1.1 2.3 1.3.9.3 1.7.4 2.6.4 1.7 0 3.2-.5 4.6-1.4l.1-.1V32l-.6-.6v-.1h-.2a7.2 7.2 0 0 1-4 1.3c-1.2 0-2.2-.2-3-.6a5 5 0 0 1-1.8-1.7 7 7 0 0 1-1-2.4l-.2-2.9h12.2v-.8c0-1-.2-2-.4-3a7 7 0 0 0-1.1-2.6 5.7 5.7 0 0 0-2-1.7c-.9-.4-2-.6-3.1-.6Zm-5.6 7.6c.2-2 .7-3.7 1.6-4.8a5 5 0 0 1 4-1.7c1.6 0 3 .5 3.8 1.6 1 1 1.4 2.7 1.5 5h-10.9Z"/>
  <defs>
    <linearGradient id="a" x1="133.7" x2="168.1" y1="40" y2="-7.5" gradientUnits="userSpaceOnUse">
      <stop stop-color="#E31C24" stop-opacity="0"/>
      <stop offset="1" stop-color="#E31C24"/>
    </linearGradient>
  </defs>
</svg>
