<svg width="384" height="90" viewBox="0 0 384 90" fill="none" xmlns="http://www.w3.org/2000/svg">
<path fill-rule="evenodd" clip-rule="evenodd" d="M64 54C62.3278 54.9654 60.4309 55.4737 58.5 55.4737C56.5691 55.4737 54.6722 54.9654 53 54C49.6 52.1 47.5 48.5 47.5 44.7V25.9H54.6V43.6C54.6 44.6 54.8 45.6 55.1 46.6C55.4488 47.166 55.9332 47.6361 56.5094 47.9678C57.0856 48.2996 57.7354 48.4825 58.4 48.5C59.2324 48.448 60.0278 48.1371 60.6749 47.6108C61.3219 47.0845 61.7883 46.3691 62.0087 45.5647C62.2291 44.7602 62.1925 43.9071 61.9041 43.1245C61.6156 42.3418 61.0897 41.669 60.4 41.2C59.8 40.9 59.2 40.7 58.4 40.7C57.6106 40.7356 56.833 40.9047 56.1 41.2V34L58.4 33.8C60.3413 33.734 62.2635 34.2028 63.9565 35.1552C65.6494 36.1075 67.0482 37.5067 68 39.2C71 44.4 69.2 51 64 54.2V54ZM22.4 78.3H69C74.8 78.3 79.4 73.6 79.4 67.8V21.2C79.4 15.5 74.7 10.8 69 10.8H22.4C16.7 10.8 12 15.5 12 21.2V67.8C12 73.6 16.6 78.3 22.4 78.3ZM45.2 48.8C44.6 50.1 43.8 51.3 42.8 52.3C41.8 53.3 40.5 54.2 39.2 54.7C37.8 55.3 36.2 55.6 34.8 55.6C34.0571 55.5912 33.3181 55.4904 32.6 55.3V47.9C33.3 48.2 34.1 48.4 34.9 48.4C35.4254 48.4323 35.952 48.3606 36.4497 48.189C36.9473 48.0174 37.4062 47.7493 37.8 47.4C38.5 46.6 38.9 45.6 38.8 44.6C38.8 43.9 38.8 43.2 38.4 42.6C38.1 42 37.6 41.6 37.1 41.2C36.4919 40.8489 35.8021 40.6641 35.1 40.6641C34.3979 40.6641 33.7081 40.8489 33.1 41.2C32.6405 41.4789 32.2493 41.8572 31.9551 42.3072C31.661 42.7571 31.4713 43.2672 31.4 43.8L31.2 45.6V63.2H24.2V45.4C24.1 44.4 24.2 43.3 24.4 42.2C24.6472 40.5165 25.3375 38.929 26.4 37.6C27.4578 36.2774 28.8341 35.2451 30.4 34.6C31.8561 33.8625 33.4679 33.4853 35.1 33.5C36.5553 33.4428 38.0065 33.689 39.3615 34.2229C40.7165 34.7568 41.9456 35.5667 42.9707 36.6012C43.9959 37.6357 44.7945 38.8722 45.3161 40.232C45.8376 41.5918 46.0705 43.0453 46 44.5C46 45.9 45.7 47.5 45.2 48.8V48.8ZM364.6 51.4V47.2C364.8 44.4 364.3 41.7 363 39.2C362.424 38.4369 361.662 37.8341 360.786 37.449C359.911 37.0639 358.952 36.9093 358 37C357.027 36.9402 356.054 37.1184 355.166 37.5192C354.277 37.9199 353.499 38.5311 352.9 39.3C351.548 41.8458 350.957 44.7274 351.2 47.6V51.6L364.6 51.4ZM370.9 56.5H351.2V61.3C351 64.3 351.6 67.3 352.9 69.8C354.135 71.2078 355.871 72.0788 357.738 72.2282C359.605 72.3776 361.457 71.7935 362.9 70.6C364.019 69.032 364.55 67.1203 364.4 65.2H370.6C370.6 68.6 369.4 72 367.2 74.6C366.023 75.7671 364.613 76.673 363.062 77.2589C361.512 77.8447 359.855 78.0972 358.2 78C354.4 78.2 350.8 76.7 348.2 74C345.9 71.4 344.7 67.3 344.7 61.8V47.5C344.7 42 345.9 37.9 348.2 35.3C350.7 32.6 354.2 31.1 357.9 31.3C366.4 31.3 370.7 36.6 370.7 47.1L370.9 56.5ZM337.9 64.5C337.9 73.5 333.9 78 325.9 78C318.3 78 314.3 73.9 313.8 65.5H320C319.963 67.3909 320.523 69.2453 321.6 70.8C322.164 71.3481 322.841 71.7664 323.584 72.0255C324.327 72.2845 325.117 72.3782 325.9 72.3C327.6 72.5 329.4 71.8 330.5 70.5C331.5 68.7 331.9 66.5 331.8 64.5C331.8 62.9 331.6 61.3 330.9 59.8C330 58.6 328.7 57.8 327.3 57.4L323.2 56.2C320.536 55.5218 318.155 54.0163 316.4 51.9C314.898 49.404 314.199 46.5063 314.4 43.6C314.1 40.1 315.3 36.7 317.6 34.1C319.9 32.1 322.9 30.9 326.1 31.1C333.5 31.1 337.4 34.9 337.6 42.5H331.5C331.563 40.8371 331.031 39.2063 330 37.9C328.892 36.9538 327.453 36.4862 326 36.6C324.4 36.5 322.9 37.1 321.8 38.2C320.838 39.754 320.417 41.5818 320.6 43.4C320.5 45 320.8 46.7 321.5 48.1C322.3 49.3 323.5 50.1 325 50.4L329 51.7C331.6 52.3 334 53.7 335.8 55.7C337.1 57.5 337.8 60.3 337.8 64.5H337.9ZM299.5 61.5V56.3H293.2C288.5 56.3 286.2 59 286.2 64.3C286.2 69.7 288.2 72.3 292.2 72.3C294.5 72.4 296.7 71.3 298 69.3C299.2 66.9 299.7 64.3 299.5 61.5ZM306 77.5H299.5V73C297.9 76 294.6 78 291.1 77.7C289.498 77.827 287.889 77.5661 286.41 76.9394C284.93 76.3128 283.623 75.3388 282.6 74.1C280.687 71.2754 279.74 67.9075 279.9 64.5C279.7 60.8 280.9 57.3 283.4 54.5C285.8 52.2 289.1 51 292.5 51.2H299.5V43.9C299.7 42 299.2 40.1 298.1 38.6C297.54 38.0756 296.878 37.6718 296.156 37.4138C295.433 37.1558 294.665 37.049 293.9 37.1C289.9 37.1 287.8 39.3 287.4 43.7H281C281 40.2 282.4 36.8 285 34.5C287.5 32.4 290.7 31.2 294 31.3C297.1 31.2 300.3 32.3 302.7 34.3C305 36.6 306.1 39.8 305.9 43.1L306 77.5ZM267 61.9V47.4C267.242 44.6235 266.65 41.838 265.3 39.4C264.722 38.6325 263.963 38.0206 263.09 37.6191C262.217 37.2177 261.259 37.0393 260.3 37.1C255.6 37.1 253.3 40.6 253.3 47.4V62C253.3 68.9 255.6 72.3 260.3 72.3C262.3 72.4 264.1 71.5 265.3 70C266.6 67.5 267.2 64.8 267 62V61.9ZM273.4 62.6C273.4 65.9 272.9 69.1 271.6 72.2C270.813 74.0606 269.466 75.6292 267.745 76.6869C266.024 77.7446 264.015 78.2386 262 78.1C258.5 78.4 255 76.6 253.3 73.5V77.5H246.9V11H253.3V36C254.317 34.4092 255.744 33.1222 257.431 32.2743C259.118 31.4265 261.003 31.0492 262.886 31.1823C264.77 31.3154 266.582 31.9538 268.133 33.0305C269.685 34.1071 270.917 35.582 271.7 37.3C272.9 40.2 273.6 43.3 273.5 46.4L273.4 62.6ZM240.2 77.5H236.7C235.415 77.5928 234.125 77.4088 232.918 76.9602C231.71 76.5117 230.613 75.8091 229.7 74.9C228 72.8 227.1 70.1 227.3 67.4V36.7H222.9V31.7H227.3V17.5H233.8V31.7H240.2V36.7H233.8V66.7C233.668 68.0316 233.985 69.3691 234.7 70.5C235.5 71.3 236.7 71.7 237.7 71.6H240.2V77.5ZM215.8 77.5H209V31.7H215.7L215.8 77.5ZM216.8 14.9C216.8 16.1 216.4 17.3 215.6 18.1C215.206 18.5305 214.728 18.8743 214.194 19.1095C213.66 19.3448 213.083 19.4662 212.5 19.4662C211.917 19.4662 211.34 19.3448 210.806 19.1095C210.272 18.8743 209.794 18.5305 209.4 18.1C208.989 17.7158 208.662 17.2513 208.438 16.7352C208.214 16.2191 208.099 15.6625 208.1 15.1C208.1 13.9 208.6 12.8 209.4 11.9C210.2 11.1 211.3 10.6 212.4 10.6H212.6C213.732 10.6254 214.811 11.0866 215.612 11.8876C216.413 12.6885 216.875 13.7675 216.9 14.9H216.8ZM202.3 36.7H195.9V77.5H189.5V36.7H185V31.7H189.4V21.2C189.2 18.5 190 15.8 191.8 13.7C192.701 12.804 193.782 12.109 194.971 11.6609C196.161 11.2128 197.432 11.0216 198.7 11.1H202.2V17.1H199.8C198.7 16.9 197.5 17.3 196.8 18.1C196.05 19.2185 195.697 20.557 195.8 21.9V31.9H202.2L202.3 36.7ZM173.4 62V47.4C173.6 44.6 173 41.9 171.7 39.4C171.09 38.6494 170.308 38.0573 169.42 37.6743C168.532 37.2912 167.564 37.1285 166.6 37.2C164.6 37 162.7 37.9 161.6 39.5C160.2 41.9 159.6 44.6 159.9 47.4V62C159.627 64.7663 160.184 67.5513 161.5 70C162.1 70.7362 162.866 71.3195 163.735 71.702C164.604 72.0845 165.552 72.2551 166.5 72.2C167.489 72.2765 168.482 72.1064 169.39 71.705C170.297 71.3037 171.091 70.6834 171.7 69.9C173.031 67.491 173.622 64.7432 173.4 62V62ZM179.8 62.5C179.8 67.7 178.7 71.7 176.3 74.3C173.697 76.7761 170.242 78.1571 166.65 78.1571C163.058 78.1571 159.603 76.7761 157 74.3C154.6 71.7 153.5 67.7 153.5 62.5V47C153.5 41.7 154.6 37.8 157 35.3C159.603 32.8238 163.058 31.4428 166.65 31.4428C170.242 31.4428 173.697 32.8238 176.3 35.3C178.7 37.9 179.9 41.8 179.8 47V62.5ZM149.6 38H149.2L148.1 37.8H146.6C141.2 37.8 138.5 40.6 138.5 46.2V77.5H132V31.7H138.5V36.5C140.2 33.2 143.4 31.5 148 31.5H149.6V38ZM117.3 31.4V29.8C117.3 25.3 116.5 22.1 115 20.2C113.5 18.2 110.7 17.2 106.8 17.2H99.5V44H106.8C110.7 44 113.4 43 114.9 41.1C116.5 39.1 117.3 36 117.3 31.4V31.4ZM124.1 32C124.1 44 118.6 50.2 107.6 50.2H99.6V77.5H92.6V11H107.6C118.6 11 124.1 17 124.1 29.2V32Z" fill="#E5163A"/>
</svg>
